<svg width="280" height="56" viewBox="0 0 280 56" fill="none" xmlns="http://www.w3.org/2000/svg">
<rect x="0.5" y="0.5" width="279" height="55" rx="3.5" stroke="#79747E"/>
<path d="M24 25C25.65 25 27 26.35 27 28C27 29.65 25.65 31 24 31C22.35 31 21 29.65 21 28C21 26.35 22.35 25 24 25ZM24 23C21.24 23 19 25.24 19 28C19 30.76 21.24 33 24 33C26.76 33 29 30.76 29 28C29 25.24 26.76 23 24 23ZM14 29H16C16.55 29 17 28.55 17 28C17 27.45 16.55 27 16 27H14C13.45 27 13 27.45 13 28C13 28.55 13.45 29 14 29ZM32 29H34C34.55 29 35 28.55 35 28C35 27.45 34.55 27 34 27H32C31.45 27 31 27.45 31 28C31 28.55 31.45 29 32 29ZM23 18V20C23 20.55 23.45 21 24 21C24.55 21 25 20.55 25 20V18C25 17.45 24.55 17 24 17C23.45 17 23 17.45 23 18ZM23 36V38C23 38.55 23.45 39 24 39C24.55 39 25 38.55 25 38V36C25 35.45 24.55 35 24 35C23.45 35 23 35.45 23 36ZM17.99 20.58C17.6 20.19 16.96 20.19 16.58 20.58C16.19 20.97 16.19 21.61 16.58 21.99L17.64 23.05C18.03 23.44 18.67 23.44 19.05 23.05C19.43 22.66 19.44 22.02 19.05 21.64L17.99 20.58ZM30.36 32.95C29.97 32.56 29.33 32.56 28.95 32.95C28.56 33.34 28.56 33.98 28.95 34.36L30.01 35.42C30.4 35.81 31.04 35.81 31.42 35.42C31.81 35.03 31.81 34.39 31.42 34.01L30.36 32.95ZM31.42 21.99C31.81 21.6 31.81 20.96 31.42 20.58C31.03 20.19 30.39 20.19 30.01 20.58L28.95 21.64C28.56 22.03 28.56 22.67 28.95 23.05C29.34 23.43 29.98 23.44 30.36 23.05L31.42 21.99ZM19.05 34.36C19.44 33.97 19.44 33.33 19.05 32.95C18.66 32.56 18.02 32.56 17.64 32.95L16.58 34.01C16.19 34.4 16.19 35.04 16.58 35.42C16.97 35.8 17.61 35.81 17.99 35.42L19.05 34.36Z" fill="#49454F"/>
</svg>
