<svg width="280" height="56" viewBox="0 0 280 56" fill="none" xmlns="http://www.w3.org/2000/svg">
<rect x="1" y="1" width="278" height="54" rx="3" stroke="#6750A4" stroke-width="2"/>
<path d="M24 29C26.67 29 32 30.34 32 33V36H16V33C16 30.34 21.33 29 24 29ZM24 31C21.3003 31 18.2006 32.2897 18 33.0098V34H30V33C29.8 32.29 26.7 31 24 31ZM24 20C26.21 20 28 21.79 28 24C28 26.21 26.21 28 24 28C21.79 28 20 26.21 20 24C20 21.79 21.79 20 24 20ZM24 22C22.9 22 22 22.9 22 24C22 25.1 22.9 26 24 26C25.1 26 26 25.1 26 24C26 22.9 25.1 22 24 22Z" fill="#49454F"/>
</svg>
