<svg width="91" height="48" viewBox="0 0 91 48" fill="none" xmlns="http://www.w3.org/2000/svg">
<path d="M71 4.5C81.7696 4.5 90.5 13.2304 90.5 24C90.5 34.7696 81.7696 43.5 71 43.5H0.5V4.5H71Z" fill="#E8DEF8"/>
<path d="M71 4.5C81.7696 4.5 90.5 13.2304 90.5 24C90.5 34.7696 81.7696 43.5 71 43.5H0.5V4.5H71Z" stroke="#79747E"/>
<path d="M17.802 23.2031V24.5635H12.5178V23.2031H17.802ZM12.9416 19.0469V29H11.2258V19.0469H12.9416ZM19.1213 19.0469V29H17.4123V19.0469H19.1213ZM25.2711 27.5166V23.9893C25.2711 23.7249 25.2232 23.4971 25.1275 23.3057C25.0318 23.1143 24.886 22.9661 24.69 22.8613C24.4986 22.7565 24.2571 22.7041 23.9654 22.7041C23.6965 22.7041 23.4641 22.7497 23.2682 22.8408C23.0722 22.932 22.9195 23.055 22.8102 23.21C22.7008 23.3649 22.6461 23.5404 22.6461 23.7363H21.0055C21.0055 23.4447 21.0761 23.1621 21.2174 22.8887C21.3587 22.6152 21.5637 22.3714 21.8326 22.1572C22.1015 21.943 22.4228 21.7744 22.7965 21.6514C23.1702 21.5283 23.5895 21.4668 24.0543 21.4668C24.6103 21.4668 25.1025 21.5602 25.5309 21.7471C25.9638 21.9339 26.3033 22.2165 26.5494 22.5947C26.8001 22.9684 26.9254 23.4378 26.9254 24.0029V27.291C26.9254 27.6283 26.9482 27.9313 26.9937 28.2002C27.0439 28.4645 27.1145 28.6947 27.2057 28.8906V29H25.5172C25.4397 28.8223 25.3782 28.5967 25.3326 28.3232C25.2916 28.0452 25.2711 27.7764 25.2711 27.5166ZM25.5104 24.502L25.524 25.5205H24.3414C24.0361 25.5205 23.7672 25.5501 23.5348 25.6094C23.3023 25.6641 23.1087 25.7461 22.9537 25.8555C22.7988 25.9648 22.6826 26.097 22.6051 26.252C22.5276 26.4069 22.4889 26.5824 22.4889 26.7783C22.4889 26.9743 22.5344 27.1543 22.6256 27.3184C22.7167 27.4779 22.8489 27.6032 23.0221 27.6943C23.1998 27.7855 23.414 27.8311 23.6646 27.8311C24.0019 27.8311 24.2958 27.7627 24.5465 27.626C24.8017 27.4847 25.0022 27.3138 25.148 27.1133C25.2939 26.9082 25.3714 26.7145 25.3805 26.5322L25.9137 27.2637C25.859 27.4505 25.7656 27.651 25.6334 27.8652C25.5012 28.0794 25.3281 28.2845 25.1139 28.4805C24.9042 28.6719 24.6513 28.8291 24.3551 28.9521C24.0634 29.0752 23.7262 29.1367 23.3434 29.1367C22.8603 29.1367 22.4296 29.041 22.0514 28.8496C21.6731 28.6536 21.3769 28.3916 21.1627 28.0635C20.9485 27.7308 20.8414 27.3548 20.8414 26.9355C20.8414 26.5436 20.9143 26.1973 21.0602 25.8965C21.2105 25.5911 21.4293 25.3359 21.7164 25.1309C22.0081 24.9258 22.3635 24.7708 22.7828 24.666C23.2021 24.5566 23.6806 24.502 24.2184 24.502H25.5104ZM33.3896 18.3633H34.7227C34.7227 18.7689 34.6657 19.1038 34.5518 19.3682C34.4424 19.6279 34.2783 19.8421 34.0596 20.0107C33.8454 20.1748 33.5788 20.307 33.2598 20.4072C32.9453 20.5075 32.5807 20.5986 32.166 20.6807C31.7832 20.7627 31.4368 20.8926 31.127 21.0703C30.8216 21.2435 30.5641 21.4873 30.3545 21.8018C30.1494 22.1117 30.0013 22.5104 29.9102 22.998C29.819 23.4857 29.7917 24.0804 29.8281 24.7822V25.2471L28.5225 25.3633V24.8984C28.5225 24.028 28.6022 23.2692 28.7617 22.6221C28.9212 21.9749 29.1468 21.4303 29.4385 20.9883C29.7347 20.5417 30.0856 20.1862 30.4912 19.9219C30.9014 19.6576 31.3571 19.4753 31.8584 19.375C32.2002 19.3021 32.485 19.2292 32.7129 19.1562C32.9408 19.0788 33.1094 18.9808 33.2188 18.8623C33.3327 18.7393 33.3896 18.5729 33.3896 18.3633ZM32.2344 22.0205C32.7266 22.0205 33.1641 22.1071 33.5469 22.2803C33.9297 22.4489 34.2533 22.6859 34.5176 22.9912C34.7819 23.2965 34.9824 23.6566 35.1191 24.0713C35.2604 24.486 35.3311 24.9372 35.3311 25.4248V25.5752C35.3311 26.0856 35.2559 26.5573 35.1055 26.9902C34.9551 27.4232 34.734 27.8014 34.4424 28.125C34.1507 28.444 33.793 28.6947 33.3691 28.877C32.9499 29.0547 32.4691 29.1436 31.9268 29.1436C31.389 29.1436 30.9082 29.0501 30.4844 28.8633C30.0605 28.6764 29.7028 28.4167 29.4111 28.084C29.1195 27.7467 28.8984 27.3525 28.748 26.9014C28.5977 26.4502 28.5225 25.958 28.5225 25.4248V25.2744C28.5179 25.1787 28.543 25.0853 28.5977 24.9941C28.6569 24.903 28.7275 24.805 28.8096 24.7002C28.8916 24.5954 28.9645 24.4746 29.0283 24.3379C29.2562 23.8776 29.5251 23.4743 29.835 23.1279C30.1449 22.7816 30.498 22.5104 30.8945 22.3145C31.2956 22.1185 31.7422 22.0205 32.2344 22.0205ZM31.9131 23.3262C31.5029 23.3262 31.168 23.4242 30.9082 23.6201C30.653 23.8115 30.4639 24.0667 30.3408 24.3857C30.2223 24.7048 30.1631 25.0511 30.1631 25.4248V25.5752C30.1631 25.8805 30.1973 26.1699 30.2656 26.4434C30.334 26.7168 30.4365 26.9583 30.5732 27.168C30.7145 27.373 30.8968 27.5348 31.1201 27.6533C31.348 27.7718 31.6169 27.8311 31.9268 27.8311C32.2412 27.8311 32.5078 27.7718 32.7266 27.6533C32.9499 27.5348 33.1299 27.373 33.2666 27.168C33.4079 26.9583 33.5104 26.7168 33.5742 26.4434C33.6426 26.1699 33.6768 25.8805 33.6768 25.5752V25.4248C33.6768 25.1423 33.6426 24.8757 33.5742 24.625C33.5104 24.3743 33.4079 24.1533 33.2666 23.9619C33.1253 23.766 32.943 23.611 32.7197 23.4971C32.4964 23.3831 32.2275 23.3262 31.9131 23.3262ZM38.4867 21.6035V29H36.8324V21.6035H38.4867ZM36.723 19.6621C36.723 19.4115 36.8051 19.2041 36.9691 19.04C37.1378 18.8714 37.3702 18.7871 37.6664 18.7871C37.9581 18.7871 38.1882 18.8714 38.3568 19.04C38.5255 19.2041 38.6098 19.4115 38.6098 19.6621C38.6098 19.9082 38.5255 20.1133 38.3568 20.2773C38.1882 20.4414 37.9581 20.5234 37.6664 20.5234C37.3702 20.5234 37.1378 20.4414 36.9691 20.2773C36.8051 20.1133 36.723 19.9082 36.723 19.6621ZM42.0457 23.0254V31.8438H40.3982V21.6035H41.9158L42.0457 23.0254ZM46.865 25.2334V25.377C46.865 25.9147 46.8012 26.4137 46.6736 26.874C46.5506 27.3298 46.366 27.7285 46.1199 28.0703C45.8784 28.4076 45.5799 28.6696 45.2244 28.8564C44.8689 29.0433 44.4588 29.1367 43.9939 29.1367C43.5337 29.1367 43.1303 29.0524 42.784 28.8838C42.4422 28.7106 42.1528 28.4668 41.9158 28.1523C41.6788 27.8379 41.4874 27.4688 41.3416 27.0449C41.2003 26.6165 41.1001 26.1471 41.0408 25.6367V25.083C41.1001 24.5407 41.2003 24.0485 41.3416 23.6064C41.4874 23.1644 41.6788 22.7839 41.9158 22.4648C42.1528 22.1458 42.4422 21.8997 42.784 21.7266C43.1258 21.5534 43.5245 21.4668 43.9803 21.4668C44.4451 21.4668 44.8576 21.5579 45.2176 21.7402C45.5776 21.918 45.8807 22.1732 46.1268 22.5059C46.3729 22.834 46.5574 23.2305 46.6805 23.6953C46.8035 24.1556 46.865 24.6683 46.865 25.2334ZM45.2176 25.377V25.2334C45.2176 24.8916 45.1857 24.5749 45.1219 24.2832C45.0581 23.987 44.9578 23.7272 44.8211 23.5039C44.6844 23.2806 44.5089 23.1074 44.2947 22.9844C44.0851 22.8568 43.8322 22.793 43.5359 22.793C43.2443 22.793 42.9936 22.8431 42.784 22.9434C42.5743 23.0391 42.3989 23.1735 42.2576 23.3467C42.1163 23.5199 42.007 23.7227 41.9295 23.9551C41.852 24.1829 41.7973 24.4313 41.7654 24.7002V26.0264C41.8201 26.3545 41.9135 26.6553 42.0457 26.9287C42.1779 27.2021 42.3647 27.4209 42.6062 27.585C42.8523 27.7445 43.1668 27.8242 43.5496 27.8242C43.8458 27.8242 44.0988 27.7604 44.3084 27.6328C44.518 27.5052 44.6889 27.3298 44.8211 27.1064C44.9578 26.8786 45.0581 26.6165 45.1219 26.3203C45.1857 26.0241 45.2176 25.7096 45.2176 25.377ZM55.5484 25.835H53.1832L53.1695 24.6729H55.1109C55.4299 24.6729 55.692 24.641 55.8971 24.5771C56.1067 24.5133 56.2617 24.4176 56.3619 24.29C56.4622 24.1579 56.5123 23.9984 56.5123 23.8115C56.5123 23.6566 56.4827 23.5221 56.4234 23.4082C56.3642 23.2897 56.273 23.194 56.15 23.1211C56.0315 23.0436 55.8811 22.9889 55.6988 22.957C55.5211 22.9206 55.3137 22.9023 55.0768 22.9023H53.7301V29H52.0826V21.6035H55.0768C55.5507 21.6035 55.9768 21.6445 56.3551 21.7266C56.7379 21.8086 57.0637 21.9339 57.3326 22.1025C57.6015 22.2712 57.8066 22.4854 57.9478 22.7451C58.0937 23.0003 58.1666 23.3011 58.1666 23.6475C58.1666 23.8753 58.1165 24.0895 58.0162 24.29C57.9205 24.4906 57.777 24.6683 57.5855 24.8232C57.3941 24.9782 57.1594 25.1058 56.8814 25.2061C56.6034 25.3018 56.2844 25.361 55.9244 25.3838L55.5484 25.835ZM55.5484 29H52.7047L53.3609 27.7012H55.5484C55.8401 27.7012 56.0816 27.6647 56.273 27.5918C56.4645 27.5189 56.6057 27.4141 56.6969 27.2773C56.7926 27.1361 56.8404 26.9697 56.8404 26.7783C56.8404 26.5824 56.7949 26.4137 56.7037 26.2725C56.6126 26.1312 56.4713 26.0241 56.2799 25.9512C56.093 25.8737 55.8492 25.835 55.5484 25.835H53.6686L53.6822 24.6729H55.9176L56.3893 25.124C56.8587 25.1559 57.2483 25.2562 57.5582 25.4248C57.8681 25.5934 58.1005 25.8053 58.2555 26.0605C58.4104 26.3158 58.4879 26.5938 58.4879 26.8945C58.4879 27.2409 58.4218 27.5462 58.2896 27.8105C58.162 28.0749 57.9706 28.2959 57.7154 28.4736C57.4648 28.6468 57.1572 28.779 56.7926 28.8701C56.428 28.9567 56.0133 29 55.5484 29ZM64.1797 27.5166V23.9893C64.1797 23.7249 64.1318 23.4971 64.0361 23.3057C63.9404 23.1143 63.7946 22.9661 63.5986 22.8613C63.4072 22.7565 63.1657 22.7041 62.874 22.7041C62.6051 22.7041 62.3727 22.7497 62.1768 22.8408C61.9808 22.932 61.8281 23.055 61.7188 23.21C61.6094 23.3649 61.5547 23.5404 61.5547 23.7363H59.9141C59.9141 23.4447 59.9847 23.1621 60.126 22.8887C60.2673 22.6152 60.4723 22.3714 60.7412 22.1572C61.0101 21.943 61.3314 21.7744 61.7051 21.6514C62.0788 21.5283 62.498 21.4668 62.9629 21.4668C63.5189 21.4668 64.0111 21.5602 64.4395 21.7471C64.8724 21.9339 65.2119 22.2165 65.458 22.5947C65.7087 22.9684 65.834 23.4378 65.834 24.0029V27.291C65.834 27.6283 65.8568 27.9313 65.9023 28.2002C65.9525 28.4645 66.0231 28.6947 66.1143 28.8906V29H64.4258C64.3483 28.8223 64.2868 28.5967 64.2412 28.3232C64.2002 28.0452 64.1797 27.7764 64.1797 27.5166ZM64.4189 24.502L64.4326 25.5205H63.25C62.9447 25.5205 62.6758 25.5501 62.4434 25.6094C62.2109 25.6641 62.0173 25.7461 61.8623 25.8555C61.7074 25.9648 61.5911 26.097 61.5137 26.252C61.4362 26.4069 61.3975 26.5824 61.3975 26.7783C61.3975 26.9743 61.443 27.1543 61.5342 27.3184C61.6253 27.4779 61.7575 27.6032 61.9307 27.6943C62.1084 27.7855 62.3226 27.8311 62.5732 27.8311C62.9105 27.8311 63.2044 27.7627 63.4551 27.626C63.7103 27.4847 63.9108 27.3138 64.0566 27.1133C64.2025 26.9082 64.2799 26.7145 64.2891 26.5322L64.8223 27.2637C64.7676 27.4505 64.6742 27.651 64.542 27.8652C64.4098 28.0794 64.2367 28.2845 64.0225 28.4805C63.8128 28.6719 63.5599 28.8291 63.2637 28.9521C62.972 29.0752 62.6348 29.1367 62.252 29.1367C61.7689 29.1367 61.3382 29.041 60.96 28.8496C60.5817 28.6536 60.2855 28.3916 60.0713 28.0635C59.8571 27.7308 59.75 27.3548 59.75 26.9355C59.75 26.5436 59.8229 26.1973 59.9688 25.8965C60.1191 25.5911 60.3379 25.3359 60.625 25.1309C60.9167 24.9258 61.2721 24.7708 61.6914 24.666C62.1107 24.5566 62.5892 24.502 63.127 24.502H64.4189ZM72.5785 21.6035V22.916H69.352V29H67.7045V21.6035H72.5785ZM75.3377 26.5938L78.243 21.6035H79.8904V29H78.243V24.0029L75.3377 29H73.6902V21.6035H75.3377V26.5938Z" fill="#1C1B1F"/>
</svg>
