<svg width="115" height="48" viewBox="0 0 115 48" fill="none" xmlns="http://www.w3.org/2000/svg">
<rect x="0.5" y="4.5" width="114" height="39" fill="#E8DEF8"/>
<rect x="0.5" y="4.5" width="114" height="39" stroke="#79747E"/>
<path d="M13.975 19.0469V29H12.266V20.4141H7.84316V29H6.13418V19.0469H13.975ZM17.7391 21.6035V29H16.0848V21.6035H17.7391ZM15.9754 19.6621C15.9754 19.4115 16.0574 19.2041 16.2215 19.04C16.3901 18.8714 16.6225 18.7871 16.9187 18.7871C17.2104 18.7871 17.4406 18.8714 17.6092 19.04C17.7778 19.2041 17.8621 19.4115 17.8621 19.6621C17.8621 19.9082 17.7778 20.1133 17.6092 20.2773C17.4406 20.4414 17.2104 20.5234 16.9187 20.5234C16.6225 20.5234 16.3901 20.4414 16.2215 20.2773C16.0574 20.1133 15.9754 19.9082 15.9754 19.6621ZM20.9836 21.6035H22.6311L22.549 24.208C22.5262 24.9645 22.4396 25.6139 22.2893 26.1562C22.1389 26.6986 21.9429 27.1566 21.7014 27.5303C21.4598 27.8994 21.1864 28.2025 20.8811 28.4395C20.5803 28.6764 20.2635 28.8633 19.9309 29H19.4455V27.7012L19.6779 27.6875C19.8739 27.4779 20.0425 27.2682 20.1838 27.0586C20.3296 26.8444 20.4527 26.6097 20.5529 26.3545C20.6532 26.0947 20.7307 25.7917 20.7853 25.4453C20.8446 25.099 20.8833 24.6865 20.9016 24.208L20.9836 21.6035ZM21.4211 21.6035H26.1105V29H24.4699V22.998H21.4211V21.6035ZM19.0695 27.6875H27.1223V31.2012H25.4748V29H20.7375V31.2012H19.0627L19.0695 27.6875ZM31.693 21.6035V29H30.0387V21.6035H31.693ZM34.1197 21.6035V22.9023H27.6529V21.6035H34.1197ZM36.9746 23.0254V31.8438H35.3271V21.6035H36.8447L36.9746 23.0254ZM41.7939 25.2334V25.377C41.7939 25.9147 41.7301 26.4137 41.6025 26.874C41.4795 27.3298 41.2949 27.7285 41.0488 28.0703C40.8073 28.4076 40.5088 28.6696 40.1533 28.8564C39.7978 29.0433 39.3877 29.1367 38.9228 29.1367C38.4626 29.1367 38.0592 29.0524 37.7129 28.8838C37.3711 28.7106 37.0817 28.4668 36.8447 28.1523C36.6077 27.8379 36.4163 27.4688 36.2705 27.0449C36.1292 26.6165 36.029 26.1471 35.9697 25.6367V25.083C36.029 24.5407 36.1292 24.0485 36.2705 23.6064C36.4163 23.1644 36.6077 22.7839 36.8447 22.4648C37.0817 22.1458 37.3711 21.8997 37.7129 21.7266C38.0547 21.5534 38.4534 21.4668 38.9092 21.4668C39.374 21.4668 39.7865 21.5579 40.1465 21.7402C40.5065 21.918 40.8096 22.1732 41.0557 22.5059C41.3018 22.834 41.4863 23.2305 41.6094 23.6953C41.7324 24.1556 41.7939 24.6683 41.7939 25.2334ZM40.1465 25.377V25.2334C40.1465 24.8916 40.1146 24.5749 40.0508 24.2832C39.987 23.987 39.8867 23.7272 39.75 23.5039C39.6133 23.2806 39.4378 23.1074 39.2236 22.9844C39.014 22.8568 38.7611 22.793 38.4648 22.793C38.1732 22.793 37.9225 22.8431 37.7129 22.9434C37.5033 23.0391 37.3278 23.1735 37.1865 23.3467C37.0452 23.5199 36.9359 23.7227 36.8584 23.9551C36.7809 24.1829 36.7262 24.4313 36.6943 24.7002V26.0264C36.749 26.3545 36.8424 26.6553 36.9746 26.9287C37.1068 27.2021 37.2936 27.4209 37.5352 27.585C37.7812 27.7445 38.0957 27.8242 38.4785 27.8242C38.7747 27.8242 39.0277 27.7604 39.2373 27.6328C39.4469 27.5052 39.6178 27.3298 39.75 27.1064C39.8867 26.8786 39.987 26.6165 40.0508 26.3203C40.1146 26.0241 40.1465 25.7096 40.1465 25.377ZM44.9975 26.5938L47.9027 21.6035H49.5502V29H47.9027V24.0029L44.9975 29H43.35V21.6035H44.9975V26.5938ZM55.7889 27.0039L57.99 21.6035H59.4187L56.3494 29H55.2283L52.1658 21.6035H53.5945L55.7889 27.0039ZM53.1707 21.6035V29H51.5232V21.6035H53.1707ZM58.407 29V21.6035H60.0613V29H58.407ZM63.7844 21.6035V29H62.1369V21.6035H63.7844ZM68.6105 21.6035L65.2814 26.0537H63.4016L63.1828 24.5635H64.5568L66.5529 21.6035H68.6105ZM66.6828 29L64.4543 25.7734L65.7531 24.8369L68.8498 29H66.6828ZM74.0152 27.5166V23.9893C74.0152 23.7249 73.9674 23.4971 73.8717 23.3057C73.776 23.1143 73.6301 22.9661 73.4342 22.8613C73.2428 22.7565 73.0012 22.7041 72.7096 22.7041C72.4407 22.7041 72.2083 22.7497 72.0123 22.8408C71.8163 22.932 71.6637 23.055 71.5543 23.21C71.4449 23.3649 71.3902 23.5404 71.3902 23.7363H69.7496C69.7496 23.4447 69.8202 23.1621 69.9615 22.8887C70.1028 22.6152 70.3079 22.3714 70.5768 22.1572C70.8456 21.943 71.1669 21.7744 71.5406 21.6514C71.9143 21.5283 72.3336 21.4668 72.7984 21.4668C73.3544 21.4668 73.8466 21.5602 74.275 21.7471C74.7079 21.9339 75.0475 22.2165 75.2936 22.5947C75.5442 22.9684 75.6695 23.4378 75.6695 24.0029V27.291C75.6695 27.6283 75.6923 27.9313 75.7379 28.2002C75.788 28.4645 75.8587 28.6947 75.9498 28.8906V29H74.2613C74.1839 28.8223 74.1223 28.5967 74.0768 28.3232C74.0357 28.0452 74.0152 27.7764 74.0152 27.5166ZM74.2545 24.502L74.2682 25.5205H73.0855C72.7802 25.5205 72.5113 25.5501 72.2789 25.6094C72.0465 25.6641 71.8528 25.7461 71.6978 25.8555C71.5429 25.9648 71.4267 26.097 71.3492 26.252C71.2717 26.4069 71.233 26.5824 71.233 26.7783C71.233 26.9743 71.2786 27.1543 71.3697 27.3184C71.4609 27.4779 71.593 27.6032 71.7662 27.6943C71.9439 27.7855 72.1581 27.8311 72.4088 27.8311C72.746 27.8311 73.04 27.7627 73.2906 27.626C73.5458 27.4847 73.7464 27.3138 73.8922 27.1133C74.038 26.9082 74.1155 26.7145 74.1246 26.5322L74.6578 27.2637C74.6031 27.4505 74.5097 27.651 74.3775 27.8652C74.2454 28.0794 74.0722 28.2845 73.858 28.4805C73.6484 28.6719 73.3954 28.8291 73.0992 28.9521C72.8075 29.0752 72.4703 29.1367 72.0875 29.1367C71.6044 29.1367 71.1738 29.041 70.7955 28.8496C70.4173 28.6536 70.121 28.3916 69.9068 28.0635C69.6926 27.7308 69.5855 27.3548 69.5855 26.9355C69.5855 26.5436 69.6585 26.1973 69.8043 25.8965C69.9547 25.5911 70.1734 25.3359 70.4605 25.1309C70.7522 24.9258 71.1077 24.7708 71.527 24.666C71.9462 24.5566 72.4247 24.502 72.9625 24.502H74.2545ZM84.6742 25.835H82.309L82.2953 24.6729H84.2367C84.5557 24.6729 84.8178 24.641 85.0229 24.5771C85.2325 24.5133 85.3874 24.4176 85.4877 24.29C85.588 24.1579 85.6381 23.9984 85.6381 23.8115C85.6381 23.6566 85.6085 23.5221 85.5492 23.4082C85.49 23.2897 85.3988 23.194 85.2758 23.1211C85.1573 23.0436 85.0069 22.9889 84.8246 22.957C84.6469 22.9206 84.4395 22.9023 84.2025 22.9023H82.8559V29H81.2084V21.6035H84.2025C84.6765 21.6035 85.1026 21.6445 85.4809 21.7266C85.8637 21.8086 86.1895 21.9339 86.4584 22.1025C86.7273 22.2712 86.9324 22.4854 87.0736 22.7451C87.2195 23.0003 87.2924 23.3011 87.2924 23.6475C87.2924 23.8753 87.2423 24.0895 87.142 24.29C87.0463 24.4906 86.9027 24.6683 86.7113 24.8232C86.5199 24.9782 86.2852 25.1058 86.0072 25.2061C85.7292 25.3018 85.4102 25.361 85.0502 25.3838L84.6742 25.835ZM84.6742 29H81.8305L82.4867 27.7012H84.6742C84.9659 27.7012 85.2074 27.6647 85.3988 27.5918C85.5902 27.5189 85.7315 27.4141 85.8227 27.2773C85.9184 27.1361 85.9662 26.9697 85.9662 26.7783C85.9662 26.5824 85.9206 26.4137 85.8295 26.2725C85.7383 26.1312 85.5971 26.0241 85.4057 25.9512C85.2188 25.8737 84.975 25.835 84.6742 25.835H82.7943L82.808 24.6729H85.0434L85.515 25.124C85.9844 25.1559 86.3741 25.2562 86.684 25.4248C86.9939 25.5934 87.2263 25.8053 87.3812 26.0605C87.5362 26.3158 87.6137 26.5938 87.6137 26.8945C87.6137 27.2409 87.5476 27.5462 87.4154 27.8105C87.2878 28.0749 87.0964 28.2959 86.8412 28.4736C86.5906 28.6468 86.2829 28.779 85.9184 28.8701C85.5538 28.9567 85.1391 29 84.6742 29ZM93.3055 27.5166V23.9893C93.3055 23.7249 93.2576 23.4971 93.1619 23.3057C93.0662 23.1143 92.9204 22.9661 92.7244 22.8613C92.533 22.7565 92.2915 22.7041 91.9998 22.7041C91.7309 22.7041 91.4985 22.7497 91.3025 22.8408C91.1066 22.932 90.9539 23.055 90.8445 23.21C90.7352 23.3649 90.6805 23.5404 90.6805 23.7363H89.0398C89.0398 23.4447 89.1105 23.1621 89.2518 22.8887C89.393 22.6152 89.5981 22.3714 89.867 22.1572C90.1359 21.943 90.4572 21.7744 90.8309 21.6514C91.2046 21.5283 91.6238 21.4668 92.0887 21.4668C92.6447 21.4668 93.1368 21.5602 93.5652 21.7471C93.9982 21.9339 94.3377 22.2165 94.5838 22.5947C94.8344 22.9684 94.9598 23.4378 94.9598 24.0029V27.291C94.9598 27.6283 94.9825 27.9313 95.0281 28.2002C95.0783 28.4645 95.1489 28.6947 95.24 28.8906V29H93.5516C93.4741 28.8223 93.4126 28.5967 93.367 28.3232C93.326 28.0452 93.3055 27.7764 93.3055 27.5166ZM93.5447 24.502L93.5584 25.5205H92.3758C92.0704 25.5205 91.8016 25.5501 91.5691 25.6094C91.3367 25.6641 91.143 25.7461 90.9881 25.8555C90.8331 25.9648 90.7169 26.097 90.6395 26.252C90.562 26.4069 90.5232 26.5824 90.5232 26.7783C90.5232 26.9743 90.5688 27.1543 90.66 27.3184C90.7511 27.4779 90.8833 27.6032 91.0564 27.6943C91.2342 27.7855 91.4484 27.8311 91.699 27.8311C92.0363 27.8311 92.3302 27.7627 92.5809 27.626C92.8361 27.4847 93.0366 27.3138 93.1824 27.1133C93.3283 26.9082 93.4057 26.7145 93.4148 26.5322L93.948 27.2637C93.8934 27.4505 93.7999 27.651 93.6678 27.8652C93.5356 28.0794 93.3624 28.2845 93.1482 28.4805C92.9386 28.6719 92.6857 28.8291 92.3895 28.9521C92.0978 29.0752 91.7605 29.1367 91.3777 29.1367C90.8947 29.1367 90.464 29.041 90.0857 28.8496C89.7075 28.6536 89.4113 28.3916 89.1971 28.0635C88.9829 27.7308 88.8758 27.3548 88.8758 26.9355C88.8758 26.5436 88.9487 26.1973 89.0945 25.8965C89.2449 25.5911 89.4637 25.3359 89.7508 25.1309C90.0424 24.9258 90.3979 24.7708 90.8172 24.666C91.2365 24.5566 91.715 24.502 92.2527 24.502H93.5447ZM101.704 21.6035V22.916H98.4777V29H96.8303V21.6035H101.704ZM104.463 26.5938L107.369 21.6035H109.016V29H107.369V24.0029L104.463 29H102.816V21.6035H104.463V26.5938Z" fill="#1C1B1F"/>
</svg>
