<svg width="91" height="48" viewBox="0 0 91 48" fill="none" xmlns="http://www.w3.org/2000/svg">
<path d="M20 4.5H90.5V43.5H20C9.23045 43.5 0.5 34.7696 0.5 24C0.5 13.2304 9.23045 4.5 20 4.5Z" fill="#E8DEF8"/>
<path d="M20 4.5H90.5V43.5H20C9.23045 43.5 0.5 34.7696 0.5 24C0.5 13.2304 9.23045 4.5 20 4.5Z" stroke="#79747E"/>
<path d="M16.7172 25.7598H18.4262C18.3715 26.4115 18.1892 26.9925 17.8793 27.5029C17.5694 28.0088 17.1342 28.4076 16.5736 28.6992C16.0131 28.9909 15.3318 29.1367 14.5297 29.1367C13.9145 29.1367 13.3607 29.0273 12.8686 28.8086C12.3764 28.5853 11.9548 28.2708 11.6039 27.8652C11.253 27.4551 10.9841 26.9606 10.7973 26.3818C10.615 25.8031 10.5238 25.1559 10.5238 24.4404V23.6133C10.5238 22.8978 10.6173 22.2507 10.8041 21.6719C10.9955 21.0931 11.2689 20.5986 11.6244 20.1885C11.9799 19.7738 12.406 19.457 12.9027 19.2383C13.404 19.0195 13.9669 18.9102 14.5912 18.9102C15.3842 18.9102 16.0541 19.056 16.601 19.3477C17.1479 19.6393 17.5717 20.0426 17.8725 20.5576C18.1778 21.0726 18.3646 21.6628 18.433 22.3281H16.724C16.6784 21.8997 16.5782 21.5329 16.4232 21.2275C16.2729 20.9222 16.0495 20.6898 15.7533 20.5303C15.4571 20.3662 15.0697 20.2842 14.5912 20.2842C14.1993 20.2842 13.8575 20.3571 13.5658 20.5029C13.2742 20.6488 13.0303 20.863 12.8344 21.1455C12.6384 21.4281 12.4903 21.7767 12.39 22.1914C12.2943 22.6016 12.2465 23.071 12.2465 23.5996V24.4404C12.2465 24.9417 12.2898 25.3975 12.3764 25.8076C12.4675 26.2132 12.6042 26.5618 12.7865 26.8535C12.9734 27.1452 13.2104 27.3708 13.4975 27.5303C13.7846 27.6898 14.1286 27.7695 14.5297 27.7695C15.0173 27.7695 15.4115 27.6921 15.7123 27.5371C16.0176 27.3822 16.2478 27.1566 16.4027 26.8604C16.5622 26.5596 16.6671 26.1927 16.7172 25.7598ZM21.1785 21.6035L22.5867 24.0576L24.0223 21.6035H25.8338L23.5916 25.2334L25.9227 29H24.1111L22.6072 26.4434L21.1033 29H19.285L21.6092 25.2334L19.3738 21.6035H21.1785ZM29.2082 28.1934L31.218 21.6035H32.9816L30.0148 30.1279C29.9465 30.3102 29.8576 30.5085 29.7482 30.7227C29.6389 30.9368 29.4953 31.1396 29.3176 31.3311C29.1444 31.527 28.9279 31.6842 28.6682 31.8027C28.4084 31.9258 28.0939 31.9873 27.7248 31.9873C27.579 31.9873 27.4377 31.9736 27.301 31.9463C27.1688 31.9235 27.0435 31.8984 26.925 31.8711L26.9182 30.6133C26.9637 30.6178 27.0184 30.6224 27.0822 30.627C27.1506 30.6315 27.2053 30.6338 27.2463 30.6338C27.5197 30.6338 27.7476 30.5996 27.9299 30.5312C28.1122 30.4674 28.2603 30.3626 28.3742 30.2168C28.4927 30.071 28.593 29.875 28.675 29.6289L29.2082 28.1934ZM28.0734 21.6035L29.8303 27.1406L30.1242 28.877L28.9826 29.1709L26.2961 21.6035H28.0734ZM34.982 21.6035H36.6295L36.5475 24.208C36.5247 24.9645 36.4381 25.6139 36.2877 26.1562C36.1373 26.6986 35.9413 27.1566 35.6998 27.5303C35.4583 27.8994 35.1848 28.2025 34.8795 28.4395C34.5787 28.6764 34.262 28.8633 33.9293 29H33.4439V27.7012L33.6764 27.6875C33.8723 27.4779 34.0409 27.2682 34.1822 27.0586C34.3281 26.8444 34.4511 26.6097 34.5514 26.3545C34.6516 26.0947 34.7291 25.7917 34.7838 25.4453C34.843 25.099 34.8818 24.6865 34.9 24.208L34.982 21.6035ZM35.4195 21.6035H40.109V29H38.4684V22.998H35.4195V21.6035ZM33.068 27.6875H41.1207V31.2012H39.4732V29H34.7359V31.2012H33.0611L33.068 27.6875ZM47.4072 24.6934V25.9922H43.5791V24.6934H47.4072ZM44.0576 21.6035V29H42.4102V21.6035H44.0576ZM48.5967 21.6035V29H46.9492V21.6035H48.5967ZM53.7143 29.1367C53.1674 29.1367 52.6729 29.0479 52.2309 28.8701C51.7934 28.6878 51.4197 28.4349 51.1098 28.1113C50.8044 27.7878 50.5697 27.4072 50.4057 26.9697C50.2416 26.5322 50.1596 26.0605 50.1596 25.5547V25.2812C50.1596 24.7025 50.2439 24.1784 50.4125 23.709C50.5811 23.2396 50.8158 22.8385 51.1166 22.5059C51.4174 22.1686 51.7729 21.9111 52.183 21.7334C52.5932 21.5557 53.0375 21.4668 53.516 21.4668C54.0447 21.4668 54.5072 21.5557 54.9037 21.7334C55.3002 21.9111 55.6283 22.1618 55.8881 22.4854C56.1524 22.8044 56.3484 23.1849 56.476 23.627C56.6081 24.069 56.6742 24.5566 56.6742 25.0898V25.7939H50.9594V24.6113H55.0473V24.4814C55.0381 24.1852 54.9789 23.9072 54.8695 23.6475C54.7647 23.3877 54.6029 23.1781 54.3842 23.0186C54.1654 22.859 53.8738 22.7793 53.5092 22.7793C53.2357 22.7793 52.9919 22.8385 52.7777 22.957C52.5681 23.071 52.3926 23.2373 52.2514 23.4561C52.1101 23.6748 52.0007 23.9391 51.9232 24.249C51.8503 24.5544 51.8139 24.8984 51.8139 25.2812V25.5547C51.8139 25.8783 51.8572 26.179 51.9437 26.457C52.0349 26.7305 52.1671 26.9697 52.3402 27.1748C52.5134 27.3799 52.723 27.5417 52.9691 27.6602C53.2152 27.7741 53.4955 27.8311 53.81 27.8311C54.2064 27.8311 54.5596 27.7513 54.8695 27.5918C55.1794 27.4323 55.4483 27.2067 55.6762 26.915L56.5443 27.7559C56.3848 27.9883 56.1775 28.2116 55.9223 28.4258C55.6671 28.6354 55.3549 28.8063 54.9857 28.9385C54.6212 29.0706 54.1973 29.1367 53.7143 29.1367ZM63.1111 24.6934V25.9922H59.283V24.6934H63.1111ZM59.7615 21.6035V29H58.1141V21.6035H59.7615ZM64.3006 21.6035V29H62.6531V21.6035H64.3006ZM71.2092 24.6934V25.9922H67.3811V24.6934H71.2092ZM67.8596 21.6035V29H66.2121V21.6035H67.8596ZM72.3986 21.6035V29H70.7512V21.6035H72.3986ZM75.8141 25.3838H77.523L75.4244 29H73.7223L75.8141 25.3838ZM77.0172 21.6035H80.1891V29H78.5484V22.9023H77.0172C76.7073 22.9023 76.4521 22.957 76.2516 23.0664C76.051 23.1712 75.9029 23.3102 75.8072 23.4834C75.7115 23.652 75.6637 23.8252 75.6637 24.0029C75.6637 24.1807 75.707 24.3516 75.7936 24.5156C75.8847 24.6797 76.0237 24.8141 76.2105 24.9189C76.402 25.0238 76.6412 25.0762 76.9283 25.0762H79.1021V26.2793H76.9283C76.4726 26.2793 76.0647 26.2223 75.7047 26.1084C75.3447 25.9899 75.0393 25.8281 74.7887 25.623C74.538 25.4134 74.3466 25.1696 74.2145 24.8916C74.0823 24.609 74.0162 24.3014 74.0162 23.9688C74.0162 23.627 74.0846 23.3125 74.2213 23.0254C74.358 22.7383 74.554 22.4876 74.8092 22.2734C75.0689 22.0592 75.3834 21.8952 75.7525 21.7812C76.1262 21.6628 76.5478 21.6035 77.0172 21.6035Z" fill="#1D192B"/>
</svg>
