<svg width="98" height="40" viewBox="0 0 98 40" fill="none" xmlns="http://www.w3.org/2000/svg">
<rect width="98" height="40" rx="20" fill="#6750A4"/>
<path d="M33.335 23.9268V25H25.8018V23.9268H33.335ZM26.0137 23.9268V27.4473H24.708L24.7012 23.9268H26.0137ZM34.4834 23.9268L34.4697 27.4404H33.1641V23.9268H34.4834ZM32.043 15.0469V16.127H27.6816V15.0469H32.043ZM33.1777 15.0469V25H31.8652V15.0469H33.1777ZM27.2305 15.0469H28.5498L28.3447 19.0527C28.3174 19.6543 28.2604 20.2103 28.1738 20.7207C28.0872 21.2266 27.9801 21.6891 27.8525 22.1084C27.7249 22.5277 27.5791 22.9036 27.415 23.2363C27.251 23.5645 27.0755 23.8493 26.8887 24.0908C26.7018 24.3278 26.5059 24.5238 26.3008 24.6787C26.1003 24.8291 25.8975 24.9362 25.6924 25H25.0908V23.9268H25.5146C25.6331 23.7992 25.7676 23.6146 25.918 23.373C26.0729 23.1315 26.2256 22.8193 26.376 22.4365C26.5309 22.0492 26.6654 21.5775 26.7793 21.0215C26.8978 20.4655 26.9775 19.8092 27.0186 19.0527L27.2305 15.0469ZM35.6088 21.3838V21.2266C35.6088 20.6934 35.6863 20.1989 35.8412 19.7432C35.9962 19.2829 36.2195 18.8841 36.5111 18.5469C36.8028 18.2051 37.156 17.9408 37.5707 17.7539C37.9854 17.5625 38.4503 17.4668 38.9652 17.4668C39.4848 17.4668 39.9519 17.5625 40.3666 17.7539C40.7859 17.9408 41.1413 18.2051 41.433 18.5469C41.7292 18.8841 41.9548 19.2829 42.1098 19.7432C42.2647 20.1989 42.3422 20.6934 42.3422 21.2266V21.3838C42.3422 21.917 42.2647 22.4115 42.1098 22.8672C41.9548 23.3229 41.7292 23.7217 41.433 24.0635C41.1413 24.4007 40.7882 24.665 40.3734 24.8564C39.9633 25.0433 39.4984 25.1367 38.9789 25.1367C38.4594 25.1367 37.9923 25.0433 37.5775 24.8564C37.1628 24.665 36.8074 24.4007 36.5111 24.0635C36.2195 23.7217 35.9962 23.3229 35.8412 22.8672C35.6863 22.4115 35.6088 21.917 35.6088 21.3838ZM36.8734 21.2266V21.3838C36.8734 21.7529 36.9167 22.1016 37.0033 22.4297C37.0899 22.7533 37.2198 23.0404 37.393 23.291C37.5707 23.5417 37.7917 23.7399 38.0561 23.8857C38.3204 24.027 38.628 24.0977 38.9789 24.0977C39.3253 24.0977 39.6283 24.027 39.8881 23.8857C40.1524 23.7399 40.3712 23.5417 40.5443 23.291C40.7175 23.0404 40.8474 22.7533 40.934 22.4297C41.0251 22.1016 41.0707 21.7529 41.0707 21.3838V21.2266C41.0707 20.862 41.0251 20.5179 40.934 20.1943C40.8474 19.8662 40.7152 19.5768 40.5375 19.3262C40.3643 19.071 40.1456 18.8704 39.8813 18.7246C39.6215 18.5788 39.3161 18.5059 38.9652 18.5059C38.6189 18.5059 38.3135 18.5788 38.0492 18.7246C37.7895 18.8704 37.5707 19.071 37.393 19.3262C37.2198 19.5768 37.0899 19.8662 37.0033 20.1943C36.9167 20.5179 36.8734 20.862 36.8734 21.2266ZM44.8689 17.6035H46.1336L46.0242 20.3721C45.9969 21.0739 45.9171 21.68 45.785 22.1904C45.6528 22.7008 45.4842 23.1361 45.2791 23.4961C45.074 23.8516 44.8439 24.1501 44.5887 24.3916C44.338 24.6331 44.0783 24.8359 43.8094 25H43.1805L43.2146 23.9678L43.4744 23.9609C43.6248 23.7832 43.7706 23.6009 43.9119 23.4141C44.0532 23.2227 44.1831 22.9971 44.3016 22.7373C44.4201 22.473 44.518 22.1517 44.5955 21.7734C44.6775 21.3906 44.7299 20.9235 44.7527 20.3721L44.8689 17.6035ZM45.1834 17.6035H49.6336V25H48.3689V18.7725H45.1834V17.6035ZM42.8934 23.9609H50.5838V27.1807H49.3191V25H44.158V27.1807H42.8865L42.8934 23.9609ZM56.4465 23.7354V19.9277C56.4465 19.6361 56.3872 19.3831 56.2687 19.1689C56.1548 18.9502 55.9816 18.7816 55.7492 18.6631C55.5168 18.5446 55.2297 18.4854 54.8879 18.4854C54.5689 18.4854 54.2886 18.54 54.0471 18.6494C53.8101 18.7588 53.6232 18.9023 53.4865 19.0801C53.3544 19.2578 53.2883 19.4492 53.2883 19.6543H52.0236C52.0236 19.39 52.092 19.1279 52.2287 18.8682C52.3654 18.6084 52.5614 18.3737 52.8166 18.1641C53.0764 17.9499 53.3863 17.7812 53.7463 17.6582C54.1109 17.5306 54.5165 17.4668 54.9631 17.4668C55.5008 17.4668 55.9748 17.5579 56.385 17.7402C56.7997 17.9225 57.1232 18.1982 57.3557 18.5674C57.5926 18.932 57.7111 19.39 57.7111 19.9414V23.3867C57.7111 23.6328 57.7316 23.8949 57.7727 24.1729C57.8182 24.4508 57.8843 24.6901 57.9709 24.8906V25H56.6516C56.5878 24.8542 56.5376 24.6605 56.5012 24.4189C56.4647 24.1729 56.4465 23.945 56.4465 23.7354ZM56.6652 20.5156L56.6789 21.4043H55.4006C55.0406 21.4043 54.7193 21.4339 54.4367 21.4932C54.1542 21.5479 53.9172 21.6322 53.7258 21.7461C53.5344 21.86 53.3885 22.0036 53.2883 22.1768C53.188 22.3454 53.1379 22.5436 53.1379 22.7715C53.1379 23.0039 53.1903 23.2158 53.2951 23.4072C53.3999 23.5986 53.5572 23.7513 53.7668 23.8652C53.981 23.9746 54.243 24.0293 54.5529 24.0293C54.9403 24.0293 55.2821 23.9473 55.5783 23.7832C55.8745 23.6191 56.1092 23.4186 56.2824 23.1816C56.4602 22.9447 56.5559 22.7145 56.5695 22.4912L57.1096 23.0996C57.0777 23.291 56.9911 23.5029 56.8498 23.7354C56.7085 23.9678 56.5194 24.1911 56.2824 24.4053C56.05 24.6149 55.772 24.7904 55.4484 24.9316C55.1294 25.0684 54.7694 25.1367 54.3684 25.1367C53.8671 25.1367 53.4273 25.0387 53.049 24.8428C52.6753 24.6468 52.3837 24.3848 52.174 24.0566C51.9689 23.724 51.8664 23.3525 51.8664 22.9424C51.8664 22.5459 51.9439 22.1973 52.0988 21.8965C52.2538 21.5911 52.4771 21.3382 52.7687 21.1377C53.0604 20.9326 53.4113 20.7777 53.8215 20.6729C54.2316 20.568 54.6896 20.5156 55.1955 20.5156H56.6652ZM62.7057 17.6035V25H61.4342V17.6035H62.7057ZM65.1871 17.6035V18.6289H59.0006V17.6035H65.1871ZM67.8984 22.9971L71.3096 17.6035H72.5811V25H71.3096V19.6064L67.8984 25H66.6406V17.6035H67.8984V22.9971Z" fill="white"/>
</svg>
