<svg width="99" height="40" viewBox="0 0 99 40" fill="none" xmlns="http://www.w3.org/2000/svg">
<rect x="0.5" y="0.5" width="98" height="39" rx="19.5" stroke="#79747E"/>
<path d="M28.8699 20.3447H26.3475L26.3338 19.2852H28.6238C29.0021 19.2852 29.3325 19.2214 29.615 19.0938C29.8976 18.9661 30.1163 18.7839 30.2713 18.5469C30.4308 18.3053 30.5105 18.0182 30.5105 17.6855C30.5105 17.321 30.4399 17.0247 30.2986 16.7969C30.1619 16.5645 29.95 16.3958 29.6629 16.291C29.3803 16.1816 29.0203 16.127 28.5828 16.127H26.6414V25H25.3221V15.0469H28.5828C29.0932 15.0469 29.549 15.0993 29.95 15.2041C30.351 15.3044 30.6906 15.4639 30.9686 15.6826C31.2511 15.8968 31.4653 16.1702 31.6111 16.5029C31.757 16.8356 31.8299 17.2344 31.8299 17.6992C31.8299 18.1094 31.7251 18.4808 31.5154 18.8135C31.3058 19.1416 31.0141 19.4105 30.6404 19.6201C30.2713 19.8298 29.8383 19.9642 29.3416 20.0234L28.8699 20.3447ZM28.8084 25H25.8279L26.573 23.9268H28.8084C29.2277 23.9268 29.5831 23.8538 29.8748 23.708C30.171 23.5622 30.3966 23.3571 30.5516 23.0928C30.7065 22.8239 30.784 22.5072 30.784 22.1426C30.784 21.7734 30.7179 21.4544 30.5857 21.1855C30.4536 20.9167 30.2462 20.7093 29.9637 20.5635C29.6811 20.4176 29.3165 20.3447 28.8699 20.3447H26.99L27.0037 19.2852H29.574L29.8543 19.668C30.3328 19.709 30.7384 19.8457 31.0711 20.0781C31.4038 20.306 31.6567 20.5977 31.8299 20.9531C32.0076 21.3086 32.0965 21.7005 32.0965 22.1289C32.0965 22.7487 31.9598 23.2728 31.6863 23.7012C31.4174 24.125 31.0369 24.4486 30.5447 24.6719C30.0525 24.8906 29.4738 25 28.8084 25ZM35.3273 17.6035V25H34.0559V17.6035H35.3273ZM33.9602 15.6416C33.9602 15.4365 34.0217 15.2633 34.1447 15.1221C34.2723 14.9808 34.4592 14.9102 34.7053 14.9102C34.9468 14.9102 35.1314 14.9808 35.259 15.1221C35.3911 15.2633 35.4572 15.4365 35.4572 15.6416C35.4572 15.8376 35.3911 16.0062 35.259 16.1475C35.1314 16.2842 34.9468 16.3525 34.7053 16.3525C34.4592 16.3525 34.2723 16.2842 34.1447 16.1475C34.0217 16.0062 33.9602 15.8376 33.9602 15.6416ZM38.7906 17.6035H40.0553L39.9459 20.3721C39.9186 21.0739 39.8388 21.68 39.7066 22.1904C39.5745 22.7008 39.4059 23.1361 39.2008 23.4961C38.9957 23.8516 38.7656 24.1501 38.5104 24.3916C38.2597 24.6331 37.9999 24.8359 37.7311 25H37.1021L37.1363 23.9678L37.3961 23.9609C37.5465 23.7832 37.6923 23.6009 37.8336 23.4141C37.9749 23.2227 38.1048 22.9971 38.2232 22.7373C38.3417 22.473 38.4397 22.1517 38.5172 21.7734C38.5992 21.3906 38.6516 20.9235 38.6744 20.3721L38.7906 17.6035ZM39.1051 17.6035H43.5553V25H42.2906V18.7725H39.1051V17.6035ZM36.815 23.9609H44.5055V27.1807H43.2408V25H38.0797V27.1807H36.8082L36.815 23.9609ZM50.2588 23.3184L52.7744 17.6035H53.9912L50.6963 25H49.8213L46.54 17.6035H47.7568L50.2588 23.3184ZM47.3877 17.6035V25H46.123V17.6035H47.3877ZM53.0889 25V17.6035H54.3604V25H53.0889ZM57.8715 17.6035V25H56.6V17.6035H57.8715ZM56.5043 15.6416C56.5043 15.4365 56.5658 15.2633 56.6889 15.1221C56.8165 14.9808 57.0033 14.9102 57.2494 14.9102C57.491 14.9102 57.6755 14.9808 57.8031 15.1221C57.9353 15.2633 58.0014 15.4365 58.0014 15.6416C58.0014 15.8376 57.9353 16.0062 57.8031 16.1475C57.6755 16.2842 57.491 16.3525 57.2494 16.3525C57.0033 16.3525 56.8165 16.2842 56.6889 16.1475C56.5658 16.0062 56.5043 15.8376 56.5043 15.6416ZM65.0193 20.8096V21.835H61.1092V20.8096H65.0193ZM61.3758 17.6035V25H60.1111V17.6035H61.3758ZM66.0447 17.6035V25H64.7732V17.6035H66.0447ZM72.5432 23.7354V19.9277C72.5432 19.6361 72.4839 19.3831 72.3654 19.1689C72.2515 18.9502 72.0783 18.7816 71.8459 18.6631C71.6135 18.5446 71.3264 18.4854 70.9846 18.4854C70.6656 18.4854 70.3853 18.54 70.1437 18.6494C69.9068 18.7588 69.7199 18.9023 69.5832 19.0801C69.451 19.2578 69.385 19.4492 69.385 19.6543H68.1203C68.1203 19.39 68.1887 19.1279 68.3254 18.8682C68.4621 18.6084 68.6581 18.3737 68.9133 18.1641C69.173 17.9499 69.4829 17.7812 69.843 17.6582C70.2076 17.5306 70.6132 17.4668 71.0598 17.4668C71.5975 17.4668 72.0715 17.5579 72.4816 17.7402C72.8964 17.9225 73.2199 18.1982 73.4523 18.5674C73.6893 18.932 73.8078 19.39 73.8078 19.9414V23.3867C73.8078 23.6328 73.8283 23.8949 73.8693 24.1729C73.9149 24.4508 73.981 24.6901 74.0676 24.8906V25H72.7482C72.6844 24.8542 72.6343 24.6605 72.5979 24.4189C72.5614 24.1729 72.5432 23.945 72.5432 23.7354ZM72.7619 20.5156L72.7756 21.4043H71.4973C71.1372 21.4043 70.8159 21.4339 70.5334 21.4932C70.2508 21.5479 70.0139 21.6322 69.8225 21.7461C69.6311 21.86 69.4852 22.0036 69.385 22.1768C69.2847 22.3454 69.2346 22.5436 69.2346 22.7715C69.2346 23.0039 69.287 23.2158 69.3918 23.4072C69.4966 23.5986 69.6538 23.7513 69.8635 23.8652C70.0777 23.9746 70.3397 24.0293 70.6496 24.0293C71.037 24.0293 71.3788 23.9473 71.675 23.7832C71.9712 23.6191 72.2059 23.4186 72.3791 23.1816C72.5568 22.9447 72.6525 22.7145 72.6662 22.4912L73.2062 23.0996C73.1743 23.291 73.0878 23.5029 72.9465 23.7354C72.8052 23.9678 72.6161 24.1911 72.3791 24.4053C72.1467 24.6149 71.8687 24.7904 71.5451 24.9316C71.2261 25.0684 70.8661 25.1367 70.465 25.1367C69.9637 25.1367 69.524 25.0387 69.1457 24.8428C68.772 24.6468 68.4803 24.3848 68.2707 24.0566C68.0656 23.724 67.9631 23.3525 67.9631 22.9424C67.9631 22.5459 68.0406 22.1973 68.1955 21.8965C68.3505 21.5911 68.5738 21.3382 68.8654 21.1377C69.1571 20.9326 69.508 20.7777 69.9182 20.6729C70.3283 20.568 70.7863 20.5156 71.2922 20.5156H72.7619Z" fill="#6750A4"/>
</svg>
