<svg width="249" height="40" viewBox="0 0 249 40" fill="none" xmlns="http://www.w3.org/2000/svg">
<rect width="249" height="40" rx="20" fill="#6750A4"/>
<path d="M28.8914 20.502H26.3553L26.3416 19.251H28.5564C28.9301 19.251 29.2469 19.1963 29.5066 19.0869C29.771 18.973 29.9715 18.8112 30.1082 18.6016C30.2449 18.3874 30.3133 18.1299 30.3133 17.8291C30.3133 17.4964 30.2495 17.2253 30.1219 17.0156C29.9943 16.806 29.7983 16.6533 29.534 16.5576C29.2742 16.4619 28.9415 16.4141 28.5359 16.4141H26.8748V25H25.159V15.0469H28.5359C29.0828 15.0469 29.5704 15.0993 29.9988 15.2041C30.4318 15.3089 30.7986 15.473 31.0994 15.6963C31.4047 15.915 31.6349 16.193 31.7898 16.5303C31.9493 16.8675 32.0291 17.2686 32.0291 17.7334C32.0291 18.1436 31.9311 18.5195 31.7352 18.8613C31.5392 19.1986 31.2498 19.4743 30.867 19.6885C30.4842 19.9027 30.0079 20.0303 29.4383 20.0713L28.8914 20.502ZM28.8162 25H25.8152L26.5877 23.6396H28.8162C29.2036 23.6396 29.5271 23.5758 29.7869 23.4482C30.0467 23.3161 30.2404 23.1361 30.368 22.9082C30.5001 22.6758 30.5662 22.4046 30.5662 22.0947C30.5662 21.7712 30.5092 21.4909 30.3953 21.2539C30.2814 21.0124 30.1014 20.8278 29.8553 20.7002C29.6092 20.568 29.2879 20.502 28.8914 20.502H26.9637L26.9773 19.251H29.4861L29.8758 19.7227C30.4227 19.7409 30.8715 19.8617 31.2225 20.085C31.5779 20.3083 31.8422 20.5977 32.0154 20.9531C32.1886 21.3086 32.2752 21.6914 32.2752 22.1016C32.2752 22.735 32.1362 23.266 31.8582 23.6943C31.5848 24.1227 31.1906 24.4486 30.6756 24.6719C30.1606 24.8906 29.5408 25 28.8162 25ZM35.6428 22.5938L38.548 17.6035H40.1955V25H38.548V20.0029L35.6428 25H33.9953V17.6035H35.6428V22.5938ZM43.3785 17.6035H45.026L44.9439 20.208C44.9212 20.9645 44.8346 21.6139 44.6842 22.1562C44.5338 22.6986 44.3378 23.1566 44.0963 23.5303C43.8548 23.8994 43.5813 24.2025 43.276 24.4395C42.9752 24.6764 42.6585 24.8633 42.3258 25H41.8404V23.7012L42.0728 23.6875C42.2688 23.4779 42.4374 23.2682 42.5787 23.0586C42.7245 22.8444 42.8476 22.6097 42.9478 22.3545C43.0481 22.0947 43.1256 21.7917 43.1803 21.4453C43.2395 21.099 43.2783 20.6865 43.2965 20.208L43.3785 17.6035ZM43.816 17.6035H48.5055V25H46.8648V18.998H43.816V17.6035ZM41.4645 23.6875H49.5172V27.2012H47.8697V25H43.1324V27.2012H41.4576L41.4645 23.6875ZM54.9629 23.5166V19.9893C54.9629 19.7249 54.915 19.4971 54.8193 19.3057C54.7236 19.1143 54.5778 18.9661 54.3818 18.8613C54.1904 18.7565 53.9489 18.7041 53.6572 18.7041C53.3883 18.7041 53.1559 18.7497 52.96 18.8408C52.764 18.932 52.6113 19.055 52.5019 19.21C52.3926 19.3649 52.3379 19.5404 52.3379 19.7363H50.6973C50.6973 19.4447 50.7679 19.1621 50.9092 18.8887C51.0505 18.6152 51.2555 18.3714 51.5244 18.1572C51.7933 17.943 52.1146 17.7744 52.4883 17.6514C52.862 17.5283 53.2812 17.4668 53.7461 17.4668C54.3021 17.4668 54.7943 17.5602 55.2227 17.7471C55.6556 17.9339 55.9951 18.2165 56.2412 18.5947C56.4919 18.9684 56.6172 19.4378 56.6172 20.0029V23.291C56.6172 23.6283 56.64 23.9313 56.6855 24.2002C56.7357 24.4645 56.8063 24.6947 56.8975 24.8906V25H55.209C55.1315 24.8223 55.07 24.5967 55.0244 24.3232C54.9834 24.0452 54.9629 23.7764 54.9629 23.5166ZM55.2021 20.502L55.2158 21.5205H54.0332C53.7279 21.5205 53.459 21.5501 53.2266 21.6094C52.9941 21.6641 52.8005 21.7461 52.6455 21.8555C52.4906 21.9648 52.3743 22.097 52.2969 22.252C52.2194 22.4069 52.1807 22.5824 52.1807 22.7783C52.1807 22.9743 52.2262 23.1543 52.3174 23.3184C52.4085 23.4779 52.5407 23.6032 52.7139 23.6943C52.8916 23.7855 53.1058 23.8311 53.3564 23.8311C53.6937 23.8311 53.9876 23.7627 54.2383 23.626C54.4935 23.4847 54.694 23.3138 54.8398 23.1133C54.9857 22.9082 55.0631 22.7145 55.0723 22.5322L55.6055 23.2637C55.5508 23.4505 55.4574 23.651 55.3252 23.8652C55.193 24.0794 55.0199 24.2845 54.8057 24.4805C54.596 24.6719 54.3431 24.8291 54.0469 24.9521C53.7552 25.0752 53.418 25.1367 53.0352 25.1367C52.5521 25.1367 52.1214 25.041 51.7432 24.8496C51.3649 24.6536 51.0687 24.3916 50.8545 24.0635C50.6403 23.7308 50.5332 23.3548 50.5332 22.9355C50.5332 22.5436 50.6061 22.1973 50.7519 21.8965C50.9023 21.5911 51.1211 21.3359 51.4082 21.1309C51.6999 20.9258 52.0553 20.7708 52.4746 20.666C52.8939 20.5566 53.3724 20.502 53.9102 20.502H55.2021ZM63.4096 17.6035V18.916H59.8002V17.6035H63.4096ZM64.7016 17.6035V25H63.0541V17.6035H64.7016ZM59.3969 17.6035H61.0238L60.8256 21.2607C60.7982 21.8031 60.7436 22.2816 60.6615 22.6963C60.584 23.1064 60.4792 23.4596 60.3471 23.7559C60.2149 24.0475 60.0531 24.2845 59.8617 24.4668C59.6703 24.6491 59.447 24.7835 59.1918 24.8701C58.9366 24.9567 58.6495 25 58.3305 25H57.8178L57.8109 23.6465L58.0707 23.626C58.2393 23.6123 58.3852 23.569 58.5082 23.4961C58.6312 23.4186 58.7361 23.3092 58.8227 23.168C58.9138 23.0267 58.9867 22.8444 59.0414 22.6211C59.1006 22.3978 59.1462 22.1335 59.1781 21.8281C59.2146 21.5228 59.2419 21.1673 59.2602 20.7617L59.3969 17.6035ZM68.2537 22.5938L71.159 17.6035H72.8064V25H71.159V20.0029L68.2537 25H66.6062V17.6035H68.2537V22.5938ZM80.0133 17.6035V25H78.3658V17.6035H80.0133ZM84.8395 17.6035L81.5103 22.0537H79.6305L79.4117 20.5635H80.7857L82.7818 17.6035H84.8395ZM82.9117 25L80.6832 21.7734L81.982 20.8369L85.0787 25H82.9117ZM89.2256 25.1367C88.6787 25.1367 88.1842 25.0479 87.7422 24.8701C87.3047 24.6878 86.931 24.4349 86.6211 24.1113C86.3158 23.7878 86.0811 23.4072 85.917 22.9697C85.7529 22.5322 85.6709 22.0605 85.6709 21.5547V21.2812C85.6709 20.7025 85.7552 20.1784 85.9238 19.709C86.0924 19.2396 86.3271 18.8385 86.6279 18.5059C86.9287 18.1686 87.2842 17.9111 87.6943 17.7334C88.1045 17.5557 88.5488 17.4668 89.0273 17.4668C89.556 17.4668 90.0186 17.5557 90.415 17.7334C90.8115 17.9111 91.1396 18.1618 91.3994 18.4854C91.6637 18.8044 91.8597 19.1849 91.9873 19.627C92.1195 20.069 92.1855 20.5566 92.1855 21.0898V21.7939H86.4707V20.6113H90.5586V20.4814C90.5495 20.1852 90.4902 19.9072 90.3809 19.6475C90.276 19.3877 90.1143 19.1781 89.8955 19.0186C89.6768 18.859 89.3851 18.7793 89.0205 18.7793C88.7471 18.7793 88.5033 18.8385 88.2891 18.957C88.0794 19.071 87.904 19.2373 87.7627 19.4561C87.6214 19.6748 87.512 19.9391 87.4346 20.249C87.3616 20.5544 87.3252 20.8984 87.3252 21.2812V21.5547C87.3252 21.8783 87.3685 22.179 87.4551 22.457C87.5462 22.7305 87.6784 22.9697 87.8516 23.1748C88.0247 23.3799 88.2344 23.5417 88.4805 23.6602C88.7266 23.7741 89.0068 23.8311 89.3213 23.8311C89.7178 23.8311 90.071 23.7513 90.3809 23.5918C90.6908 23.4323 90.9596 23.2067 91.1875 22.915L92.0557 23.7559C91.8962 23.9883 91.6888 24.2116 91.4336 24.4258C91.1784 24.6354 90.8662 24.8063 90.4971 24.9385C90.1325 25.0706 89.7087 25.1367 89.2256 25.1367ZM93.6254 17.6035H95.2729V23.6875H97.6176V17.6035H99.2787V23.6875H101.617V17.6035H103.264V25H93.6254V17.6035ZM112.159 17.6035V25H110.505V17.6035H112.159ZM114.586 17.6035V18.9023H108.119V17.6035H114.586ZM119.847 23.5166V19.9893C119.847 19.7249 119.799 19.4971 119.704 19.3057C119.608 19.1143 119.462 18.9661 119.266 18.8613C119.075 18.7565 118.833 18.7041 118.542 18.7041C118.273 18.7041 118.04 18.7497 117.844 18.8408C117.648 18.932 117.496 19.055 117.386 19.21C117.277 19.3649 117.222 19.5404 117.222 19.7363H115.582C115.582 19.4447 115.652 19.1621 115.794 18.8887C115.935 18.6152 116.14 18.3714 116.409 18.1572C116.678 17.943 116.999 17.7744 117.373 17.6514C117.746 17.5283 118.166 17.4668 118.63 17.4668C119.186 17.4668 119.679 17.5602 120.107 17.7471C120.54 17.9339 120.879 18.2165 121.126 18.5947C121.376 18.9684 121.502 19.4378 121.502 20.0029V23.291C121.502 23.6283 121.524 23.9313 121.57 24.2002C121.62 24.4645 121.691 24.6947 121.782 24.8906V25H120.093C120.016 24.8223 119.954 24.5967 119.909 24.3232C119.868 24.0452 119.847 23.7764 119.847 23.5166ZM120.087 20.502L120.1 21.5205H118.918C118.612 21.5205 118.343 21.5501 118.111 21.6094C117.879 21.6641 117.685 21.7461 117.53 21.8555C117.375 21.9648 117.259 22.097 117.181 22.252C117.104 22.4069 117.065 22.5824 117.065 22.7783C117.065 22.9743 117.111 23.1543 117.202 23.3184C117.293 23.4779 117.425 23.6032 117.598 23.6943C117.776 23.7855 117.99 23.8311 118.241 23.8311C118.578 23.8311 118.872 23.7627 119.123 23.626C119.378 23.4847 119.578 23.3138 119.724 23.1133C119.87 22.9082 119.948 22.7145 119.957 22.5322L120.49 23.2637C120.435 23.4505 120.342 23.651 120.21 23.8652C120.077 24.0794 119.904 24.2845 119.69 24.4805C119.48 24.6719 119.227 24.8291 118.931 24.9521C118.64 25.0752 118.302 25.1367 117.92 25.1367C117.436 25.1367 117.006 25.041 116.628 24.8496C116.249 24.6536 115.953 24.3916 115.739 24.0635C115.525 23.7308 115.418 23.3548 115.418 22.9355C115.418 22.5436 115.49 22.1973 115.636 21.8965C115.787 21.5911 116.005 21.3359 116.293 21.1309C116.584 20.9258 116.94 20.7708 117.359 20.666C117.778 20.5566 118.257 20.502 118.795 20.502H120.087ZM131.873 17.6035V18.916H128.223V17.6035H131.873ZM128.613 17.6035V25H126.965V17.6035H128.613ZM133.165 17.6035V25H131.511V17.6035H133.165ZM138.269 25.1367C137.722 25.1367 137.228 25.0479 136.786 24.8701C136.348 24.6878 135.975 24.4349 135.665 24.1113C135.36 23.7878 135.125 23.4072 134.961 22.9697C134.797 22.5322 134.715 22.0605 134.715 21.5547V21.2812C134.715 20.7025 134.799 20.1784 134.968 19.709C135.136 19.2396 135.371 18.8385 135.672 18.5059C135.972 18.1686 136.328 17.9111 136.738 17.7334C137.148 17.5557 137.593 17.4668 138.071 17.4668C138.6 17.4668 139.062 17.5557 139.459 17.7334C139.855 17.9111 140.183 18.1618 140.443 18.4854C140.707 18.8044 140.903 19.1849 141.031 19.627C141.163 20.069 141.229 20.5566 141.229 21.0898V21.7939H135.514V20.6113H139.602V20.4814C139.593 20.1852 139.534 19.9072 139.425 19.6475C139.32 19.3877 139.158 19.1781 138.939 19.0186C138.721 18.859 138.429 18.7793 138.064 18.7793C137.791 18.7793 137.547 18.8385 137.333 18.957C137.123 19.071 136.948 19.2373 136.806 19.4561C136.665 19.6748 136.556 19.9391 136.478 20.249C136.405 20.5544 136.369 20.8984 136.369 21.2812V21.5547C136.369 21.8783 136.412 22.179 136.499 22.457C136.59 22.7305 136.722 22.9697 136.895 23.1748C137.068 23.3799 137.278 23.5417 137.524 23.6602C137.77 23.7741 138.051 23.8311 138.365 23.8311C138.762 23.8311 139.115 23.7513 139.425 23.5918C139.735 23.4323 140.003 23.2067 140.231 22.915L141.099 23.7559C140.94 23.9883 140.733 24.2116 140.477 24.4258C140.222 24.6354 139.91 24.8063 139.541 24.9385C139.176 25.0706 138.752 25.1367 138.269 25.1367ZM144.269 19.0254V27.8438H142.621V17.6035H144.139L144.269 19.0254ZM149.088 21.2334V21.377C149.088 21.9147 149.024 22.4137 148.897 22.874C148.774 23.3298 148.589 23.7285 148.343 24.0703C148.101 24.4076 147.803 24.6696 147.447 24.8564C147.092 25.0433 146.682 25.1367 146.217 25.1367C145.757 25.1367 145.353 25.0524 145.007 24.8838C144.665 24.7106 144.376 24.4668 144.139 24.1523C143.902 23.8379 143.71 23.4688 143.565 23.0449C143.423 22.6165 143.323 22.1471 143.264 21.6367V21.083C143.323 20.5407 143.423 20.0485 143.565 19.6064C143.71 19.1644 143.902 18.7839 144.139 18.4648C144.376 18.1458 144.665 17.8997 145.007 17.7266C145.349 17.5534 145.748 17.4668 146.203 17.4668C146.668 17.4668 147.081 17.5579 147.441 17.7402C147.801 17.918 148.104 18.1732 148.35 18.5059C148.596 18.834 148.78 19.2305 148.904 19.6953C149.027 20.1556 149.088 20.6683 149.088 21.2334ZM147.441 21.377V21.2334C147.441 20.8916 147.409 20.5749 147.345 20.2832C147.281 19.987 147.181 19.7272 147.044 19.5039C146.907 19.2806 146.732 19.1074 146.518 18.9844C146.308 18.8568 146.055 18.793 145.759 18.793C145.467 18.793 145.217 18.8431 145.007 18.9434C144.797 19.0391 144.622 19.1735 144.481 19.3467C144.339 19.5199 144.23 19.7227 144.153 19.9551C144.075 20.1829 144.02 20.4313 143.988 20.7002V22.0264C144.043 22.3545 144.137 22.6553 144.269 22.9287C144.401 23.2021 144.588 23.4209 144.829 23.585C145.075 23.7445 145.39 23.8242 145.773 23.8242C146.069 23.8242 146.322 23.7604 146.531 23.6328C146.741 23.5052 146.912 23.3298 147.044 23.1064C147.181 22.8786 147.281 22.6165 147.345 22.3203C147.409 22.0241 147.441 21.7096 147.441 21.377ZM153.85 25.1367C153.303 25.1367 152.809 25.0479 152.367 24.8701C151.929 24.6878 151.556 24.4349 151.246 24.1113C150.94 23.7878 150.706 23.4072 150.542 22.9697C150.378 22.5322 150.296 22.0605 150.296 21.5547V21.2812C150.296 20.7025 150.38 20.1784 150.548 19.709C150.717 19.2396 150.952 18.8385 151.253 18.5059C151.553 18.1686 151.909 17.9111 152.319 17.7334C152.729 17.5557 153.173 17.4668 153.652 17.4668C154.181 17.4668 154.643 17.5557 155.04 17.7334C155.436 17.9111 155.764 18.1618 156.024 18.4854C156.288 18.8044 156.484 19.1849 156.612 19.627C156.744 20.069 156.81 20.5566 156.81 21.0898V21.7939H151.095V20.6113H155.183V20.4814C155.174 20.1852 155.115 19.9072 155.005 19.6475C154.901 19.3877 154.739 19.1781 154.52 19.0186C154.301 18.859 154.01 18.7793 153.645 18.7793C153.372 18.7793 153.128 18.8385 152.914 18.957C152.704 19.071 152.529 19.2373 152.387 19.4561C152.246 19.6748 152.137 19.9391 152.059 20.249C151.986 20.5544 151.95 20.8984 151.95 21.2812V21.5547C151.95 21.8783 151.993 22.179 152.08 22.457C152.171 22.7305 152.303 22.9697 152.476 23.1748C152.649 23.3799 152.859 23.5417 153.105 23.6602C153.351 23.7741 153.631 23.8311 153.946 23.8311C154.342 23.8311 154.696 23.7513 155.005 23.5918C155.315 23.4323 155.584 23.2067 155.812 22.915L156.68 23.7559C156.521 23.9883 156.313 24.2116 156.058 24.4258C155.803 24.6354 155.491 24.8063 155.122 24.9385C154.757 25.0706 154.333 25.1367 153.85 25.1367ZM161.258 21.4658H159.836V20.6318H160.984C161.276 20.6318 161.508 20.5931 161.682 20.5156C161.859 20.4382 161.985 20.3311 162.058 20.1943C162.135 20.0531 162.174 19.889 162.174 19.7021C162.174 19.5381 162.135 19.3831 162.058 19.2373C161.985 19.0869 161.859 18.9639 161.682 18.8682C161.504 18.7725 161.262 18.7246 160.957 18.7246C160.706 18.7246 160.481 18.7656 160.28 18.8477C160.084 18.9297 159.929 19.0436 159.815 19.1895C159.701 19.3353 159.645 19.5039 159.645 19.6953H157.997C157.997 19.235 158.127 18.8385 158.387 18.5059C158.651 18.1732 159.004 17.918 159.446 17.7402C159.888 17.5625 160.374 17.4736 160.902 17.4736C161.354 17.4736 161.759 17.5215 162.119 17.6172C162.479 17.7083 162.785 17.8451 163.035 18.0273C163.29 18.2051 163.484 18.4284 163.616 18.6973C163.753 18.9616 163.821 19.2692 163.821 19.6201C163.821 19.8708 163.762 20.1077 163.644 20.3311C163.525 20.5544 163.354 20.7526 163.131 20.9258C162.908 21.0944 162.636 21.2266 162.317 21.3223C162.003 21.418 161.65 21.4658 161.258 21.4658ZM159.836 20.9873H161.258C161.695 20.9873 162.083 21.0306 162.42 21.1172C162.757 21.1992 163.04 21.3223 163.268 21.4863C163.495 21.6504 163.666 21.8532 163.78 22.0947C163.899 22.3317 163.958 22.6051 163.958 22.915C163.958 23.2614 163.883 23.5736 163.732 23.8516C163.587 24.125 163.377 24.3574 163.104 24.5488C162.835 24.7402 162.513 24.8861 162.14 24.9863C161.766 25.0866 161.354 25.1367 160.902 25.1367C160.41 25.1367 159.932 25.0547 159.467 24.8906C159.007 24.7266 158.626 24.4736 158.325 24.1318C158.029 23.7855 157.881 23.3457 157.881 22.8125H159.528C159.528 22.9993 159.585 23.1748 159.699 23.3389C159.813 23.5029 159.977 23.6374 160.191 23.7422C160.406 23.8424 160.663 23.8926 160.964 23.8926C161.274 23.8926 161.527 23.8447 161.723 23.749C161.919 23.6488 162.064 23.5189 162.16 23.3594C162.256 23.1953 162.304 23.0221 162.304 22.8398C162.304 22.5938 162.256 22.3955 162.16 22.2451C162.064 22.0947 161.919 21.9854 161.723 21.917C161.527 21.8441 161.281 21.8076 160.984 21.8076H159.836V20.9873ZM169.629 23.5166V19.9893C169.629 19.7249 169.581 19.4971 169.486 19.3057C169.39 19.1143 169.244 18.9661 169.048 18.8613C168.857 18.7565 168.615 18.7041 168.324 18.7041C168.055 18.7041 167.822 18.7497 167.626 18.8408C167.43 18.932 167.278 19.055 167.168 19.21C167.059 19.3649 167.004 19.5404 167.004 19.7363H165.364C165.364 19.4447 165.434 19.1621 165.576 18.8887C165.717 18.6152 165.922 18.3714 166.191 18.1572C166.46 17.943 166.781 17.7744 167.155 17.6514C167.528 17.5283 167.948 17.4668 168.412 17.4668C168.968 17.4668 169.461 17.5602 169.889 17.7471C170.322 17.9339 170.662 18.2165 170.908 18.5947C171.158 18.9684 171.284 19.4378 171.284 20.0029V23.291C171.284 23.6283 171.306 23.9313 171.352 24.2002C171.402 24.4645 171.473 24.6947 171.564 24.8906V25H169.875C169.798 24.8223 169.736 24.5967 169.691 24.3232C169.65 24.0452 169.629 23.7764 169.629 23.5166ZM169.869 20.502L169.882 21.5205H168.7C168.394 21.5205 168.125 21.5501 167.893 21.6094C167.661 21.6641 167.467 21.7461 167.312 21.8555C167.157 21.9648 167.041 22.097 166.963 22.252C166.886 22.4069 166.847 22.5824 166.847 22.7783C166.847 22.9743 166.893 23.1543 166.984 23.3184C167.075 23.4779 167.207 23.6032 167.38 23.6943C167.558 23.7855 167.772 23.8311 168.023 23.8311C168.36 23.8311 168.654 23.7627 168.905 23.626C169.16 23.4847 169.36 23.3138 169.506 23.1133C169.652 22.9082 169.73 22.7145 169.739 22.5322L170.272 23.2637C170.217 23.4505 170.124 23.651 169.992 23.8652C169.859 24.0794 169.686 24.2845 169.472 24.4805C169.262 24.6719 169.009 24.8291 168.713 24.9521C168.422 25.0752 168.084 25.1367 167.702 25.1367C167.218 25.1367 166.788 25.041 166.41 24.8496C166.031 24.6536 165.735 24.3916 165.521 24.0635C165.307 23.7308 165.2 23.3548 165.2 22.9355C165.2 22.5436 165.273 22.1973 165.418 21.8965C165.569 21.5911 165.787 21.3359 166.075 21.1309C166.366 20.9258 166.722 20.7708 167.141 20.666C167.56 20.5566 168.039 20.502 168.577 20.502H169.869ZM178.069 17.6035V18.916H174.419V17.6035H178.069ZM174.808 17.6035V25H173.161V17.6035H174.808ZM179.361 17.6035V25H177.707V17.6035H179.361ZM183.351 24.1934L185.361 17.6035H187.124L184.157 26.1279C184.089 26.3102 184 26.5085 183.891 26.7227C183.781 26.9368 183.638 27.1396 183.46 27.3311C183.287 27.527 183.071 27.6842 182.811 27.8027C182.551 27.9258 182.237 27.9873 181.867 27.9873C181.722 27.9873 181.58 27.9736 181.444 27.9463C181.311 27.9235 181.186 27.8984 181.068 27.8711L181.061 26.6133C181.106 26.6178 181.161 26.6224 181.225 26.627C181.293 26.6315 181.348 26.6338 181.389 26.6338C181.662 26.6338 181.89 26.5996 182.072 26.5312C182.255 26.4674 182.403 26.3626 182.517 26.2168C182.635 26.071 182.736 25.875 182.818 25.6289L183.351 24.1934ZM182.216 17.6035L183.973 23.1406L184.267 24.877L183.125 25.1709L180.439 17.6035H182.216ZM191.093 23.8242C191.362 23.8242 191.604 23.7718 191.818 23.667C192.037 23.5576 192.212 23.4072 192.344 23.2158C192.481 23.0244 192.556 22.8034 192.57 22.5527H194.122C194.113 23.0312 193.971 23.4665 193.698 23.8584C193.424 24.2503 193.062 24.5625 192.611 24.7949C192.16 25.0228 191.661 25.1367 191.114 25.1367C190.549 25.1367 190.057 25.041 189.637 24.8496C189.218 24.6536 188.869 24.3848 188.591 24.043C188.313 23.7012 188.104 23.307 187.962 22.8604C187.826 22.4137 187.757 21.9352 187.757 21.4248V21.1855C187.757 20.6751 187.826 20.1966 187.962 19.75C188.104 19.2988 188.313 18.9023 188.591 18.5605C188.869 18.2188 189.218 17.9521 189.637 17.7607C190.057 17.5648 190.546 17.4668 191.107 17.4668C191.699 17.4668 192.219 17.5853 192.666 17.8223C193.112 18.0547 193.463 18.3805 193.718 18.7998C193.978 19.2145 194.113 19.6976 194.122 20.249H192.57C192.556 19.9756 192.488 19.7295 192.365 19.5107C192.246 19.2874 192.078 19.1097 191.859 18.9775C191.645 18.8454 191.387 18.7793 191.087 18.7793C190.754 18.7793 190.478 18.8477 190.259 18.9844C190.041 19.1165 189.87 19.2988 189.747 19.5312C189.624 19.7591 189.535 20.0166 189.48 20.3037C189.43 20.5863 189.405 20.8802 189.405 21.1855V21.4248C189.405 21.7301 189.43 22.0264 189.48 22.3135C189.53 22.6006 189.617 22.8581 189.74 23.0859C189.867 23.3092 190.041 23.4893 190.259 23.626C190.478 23.7581 190.756 23.8242 191.093 23.8242ZM198.918 17.6035V25H197.264V17.6035H198.918ZM201.345 17.6035V18.9023H194.878V17.6035H201.345ZM204.247 22.5938L207.153 17.6035H208.8V25H207.153V20.0029L204.247 25H202.6V17.6035H204.247V22.5938ZM214.075 17.6035V25H212.421V17.6035H214.075ZM216.502 17.6035V18.9023H210.035V17.6035H216.502ZM219.404 22.5938L222.31 17.6035H223.957V25H222.31V20.0029L219.404 25H217.757V17.6035H219.404V22.5938Z" fill="white"/>
</svg>
