<svg width="62" height="62" viewBox="0 0 62 62" fill="none" xmlns="http://www.w3.org/2000/svg">
<g filter="url(#filter0_dd_52801_10624)">
<g clip-path="url(#clip0_52801_10624)">
<rect x="11" y="7" width="40" height="40" rx="12" fill="#FFFBFE"/>
<rect x="11" y="7" width="40" height="40" rx="12" fill="#6750A4" fill-opacity="0.11"/>
<path fill-rule="evenodd" clip-rule="evenodd" d="M31 17C25.48 17 21 21.48 21 27C21 32.52 25.48 37 31 37C36.52 37 41 32.52 41 27C41 21.48 36.52 17 31 17ZM37.36 31.83C35.93 30.09 32.46 29.5 31 29.5C29.54 29.5 26.07 30.09 24.64 31.83C23.62 30.49 23 28.82 23 27C23 22.59 26.59 19 31 19C35.41 19 39 22.59 39 27C39 28.82 38.38 30.49 37.36 31.83ZM27.5 24.5C27.5 22.56 29.06 21 31 21C32.94 21 34.5 22.56 34.5 24.5C34.5 26.44 32.94 28 31 28C29.06 28 27.5 26.44 27.5 24.5Z" fill="#6750A4"/>
<rect opacity="0.12" x="11" y="7" width="40" height="40" fill="#6750A4"/>
</g>
</g>
<defs>
<filter id="filter0_dd_52801_10624" x="0" y="0" width="62" height="62" filterUnits="userSpaceOnUse" color-interpolation-filters="sRGB">
<feFlood flood-opacity="0" result="BackgroundImageFix"/>
<feColorMatrix in="SourceAlpha" type="matrix" values="0 0 0 0 0 0 0 0 0 0 0 0 0 0 0 0 0 0 127 0" result="hardAlpha"/>
<feOffset dy="1"/>
<feGaussianBlur stdDeviation="1.5"/>
<feComposite in2="hardAlpha" operator="out"/>
<feColorMatrix type="matrix" values="0 0 0 0 0 0 0 0 0 0 0 0 0 0 0 0 0 0 0.3 0"/>
<feBlend mode="normal" in2="BackgroundImageFix" result="effect1_dropShadow_52801_10624"/>
<feColorMatrix in="SourceAlpha" type="matrix" values="0 0 0 0 0 0 0 0 0 0 0 0 0 0 0 0 0 0 127 0" result="hardAlpha"/>
<feMorphology radius="3" operator="dilate" in="SourceAlpha" result="effect2_dropShadow_52801_10624"/>
<feOffset dy="4"/>
<feGaussianBlur stdDeviation="4"/>
<feComposite in2="hardAlpha" operator="out"/>
<feColorMatrix type="matrix" values="0 0 0 0 0 0 0 0 0 0 0 0 0 0 0 0 0 0 0.15 0"/>
<feBlend mode="normal" in2="effect1_dropShadow_52801_10624" result="effect2_dropShadow_52801_10624"/>
<feBlend mode="normal" in="SourceGraphic" in2="effect2_dropShadow_52801_10624" result="shape"/>
</filter>
<clipPath id="clip0_52801_10624">
<rect x="11" y="7" width="40" height="40" rx="12" fill="white"/>
</clipPath>
</defs>
</svg>
