<svg width="109" height="40" viewBox="0 0 109 40" fill="none" xmlns="http://www.w3.org/2000/svg">
<rect width="109" height="40" rx="20" fill="#6750A4"/>
<path d="M28.6178 20.2217H27.4352V19.3809H28.5699C29.0712 19.3809 29.4768 19.3102 29.7867 19.1689C30.0966 19.0277 30.3222 18.8317 30.4635 18.5811C30.6048 18.3304 30.6754 18.041 30.6754 17.7129C30.6754 17.3984 30.5979 17.1113 30.443 16.8516C30.288 16.5872 30.0488 16.3776 29.7252 16.2227C29.4016 16.0632 28.9846 15.9834 28.4742 15.9834C28.0914 15.9834 27.7451 16.0563 27.4352 16.2021C27.1253 16.3434 26.8792 16.5417 26.6969 16.7969C26.5146 17.0475 26.4234 17.3369 26.4234 17.665H25.1041C25.1041 17.2412 25.193 16.8607 25.3707 16.5234C25.5484 16.1816 25.7923 15.8923 26.1021 15.6553C26.412 15.4137 26.7698 15.2292 27.1754 15.1016C27.5855 14.974 28.0185 14.9102 28.4742 14.9102C29.0074 14.9102 29.4905 14.9717 29.9234 15.0947C30.3564 15.2132 30.7278 15.391 31.0377 15.6279C31.3476 15.8649 31.5846 16.1589 31.7486 16.5098C31.9127 16.8607 31.9947 17.2686 31.9947 17.7334C31.9947 18.0752 31.915 18.3965 31.7555 18.6973C31.596 18.998 31.3681 19.2624 31.0719 19.4902C30.7757 19.7181 30.4202 19.8981 30.0055 20.0303C29.5908 20.1579 29.1282 20.2217 28.6178 20.2217ZM27.4352 19.6406H28.6178C29.1783 19.6406 29.6773 19.6976 30.1148 19.8115C30.5523 19.9255 30.9215 20.0918 31.2223 20.3105C31.523 20.5293 31.7509 20.8005 31.9059 21.124C32.0654 21.443 32.1451 21.8099 32.1451 22.2246C32.1451 22.6895 32.054 23.1019 31.8717 23.4619C31.6939 23.8219 31.441 24.1273 31.1129 24.3779C30.7848 24.6286 30.3951 24.8177 29.9439 24.9453C29.4973 25.0729 29.0074 25.1367 28.4742 25.1367C28.0458 25.1367 27.622 25.082 27.2027 24.9727C26.788 24.8587 26.412 24.6855 26.0748 24.4531C25.7376 24.2161 25.4664 23.9154 25.2613 23.5508C25.0608 23.1862 24.9605 22.7487 24.9605 22.2383H26.2799C26.2799 22.571 26.371 22.8763 26.5533 23.1543C26.7402 23.4323 26.9977 23.6556 27.3258 23.8242C27.6539 23.9883 28.0367 24.0703 28.4742 24.0703C28.9755 24.0703 29.3993 23.9928 29.7457 23.8379C30.0966 23.6784 30.3632 23.4619 30.5455 23.1885C30.7324 22.9105 30.8258 22.5983 30.8258 22.252C30.8258 21.9466 30.7757 21.6823 30.6754 21.459C30.5797 21.2311 30.4361 21.0443 30.2447 20.8984C30.0579 20.7526 29.8232 20.6455 29.5406 20.5771C29.2626 20.5042 28.9391 20.4678 28.5699 20.4678H27.4352V19.6406ZM38.5342 14.3838H39.5732C39.5732 14.8304 39.5049 15.1859 39.3682 15.4502C39.2314 15.71 39.0446 15.9105 38.8076 16.0518C38.5752 16.193 38.3109 16.3001 38.0146 16.373C37.723 16.446 37.4199 16.5166 37.1055 16.585C36.7135 16.667 36.349 16.7969 36.0117 16.9746C35.679 17.1478 35.3919 17.3939 35.1504 17.7129C34.9134 18.0319 34.738 18.4466 34.624 18.957C34.5146 19.4674 34.485 20.0986 34.5352 20.8506V21.4795H33.4961V20.8506C33.4961 20.0075 33.5758 19.2715 33.7354 18.6426C33.8994 18.0137 34.1296 17.4827 34.4258 17.0498C34.722 16.6169 35.0729 16.2728 35.4785 16.0176C35.8887 15.7624 36.3398 15.5869 36.832 15.4912C37.1875 15.4229 37.4928 15.3499 37.748 15.2725C38.0033 15.1904 38.1969 15.0811 38.3291 14.9443C38.4658 14.8076 38.5342 14.6208 38.5342 14.3838ZM37.0371 18.0273C37.5202 18.0273 37.9508 18.1117 38.3291 18.2803C38.7074 18.4489 39.0286 18.6836 39.293 18.9844C39.5573 19.2852 39.7578 19.6406 39.8945 20.0508C40.0358 20.4564 40.1064 20.8984 40.1064 21.377V21.5273C40.1064 22.0423 40.0312 22.5208 39.8809 22.9629C39.735 23.4004 39.5186 23.7832 39.2314 24.1113C38.9489 24.4349 38.6025 24.6878 38.1924 24.8701C37.7868 25.0524 37.3242 25.1436 36.8047 25.1436C36.2852 25.1436 35.8203 25.0524 35.4102 24.8701C35.0046 24.6878 34.6582 24.4349 34.3711 24.1113C34.084 23.7832 33.8652 23.4004 33.7148 22.9629C33.569 22.5208 33.4961 22.0423 33.4961 21.5273V21.377C33.4961 21.263 33.5166 21.1514 33.5576 21.042C33.5986 20.9326 33.6488 20.821 33.708 20.707C33.7718 20.5931 33.8288 20.4723 33.8789 20.3447C34.0475 19.9346 34.2777 19.554 34.5693 19.2031C34.8656 18.8522 35.2188 18.5697 35.6289 18.3555C36.0436 18.1367 36.513 18.0273 37.0371 18.0273ZM36.791 19.0596C36.3262 19.0596 35.9434 19.1667 35.6426 19.3809C35.3464 19.5951 35.1253 19.8799 34.9795 20.2354C34.8337 20.5863 34.7607 20.9668 34.7607 21.377V21.5273C34.7607 21.8737 34.8018 22.2018 34.8838 22.5117C34.9658 22.8216 35.0889 23.0973 35.2529 23.3389C35.4215 23.5758 35.6335 23.7627 35.8887 23.8994C36.1484 24.0361 36.4538 24.1045 36.8047 24.1045C37.1556 24.1045 37.4587 24.0361 37.7139 23.8994C37.9691 23.7627 38.1787 23.5758 38.3428 23.3389C38.5068 23.0973 38.6299 22.8216 38.7119 22.5117C38.7939 22.2018 38.835 21.8737 38.835 21.5273V21.377C38.835 21.0671 38.7939 20.7731 38.7119 20.4951C38.6299 20.2171 38.5046 19.971 38.3359 19.7568C38.1719 19.5426 37.96 19.374 37.7002 19.251C37.445 19.1234 37.1419 19.0596 36.791 19.0596ZM44.7113 25.1367C44.1964 25.1367 43.7292 25.0501 43.31 24.877C42.8952 24.6992 42.5375 24.4508 42.2367 24.1318C41.9405 23.8128 41.7126 23.4346 41.5531 22.9971C41.3936 22.5596 41.3139 22.0811 41.3139 21.5615V21.2744C41.3139 20.6729 41.4027 20.1374 41.5805 19.668C41.7582 19.194 41.9997 18.793 42.3051 18.4648C42.6104 18.1367 42.9568 17.8883 43.3441 17.7197C43.7315 17.5511 44.1326 17.4668 44.5473 17.4668C45.0759 17.4668 45.5316 17.5579 45.9145 17.7402C46.3018 17.9225 46.6186 18.1777 46.8646 18.5059C47.1107 18.8294 47.293 19.2122 47.4115 19.6543C47.53 20.0918 47.5893 20.5703 47.5893 21.0898V21.6572H42.0658V20.625H46.3246V20.5293C46.3064 20.2012 46.238 19.8822 46.1195 19.5723C46.0056 19.2624 45.8233 19.0072 45.5727 18.8066C45.322 18.6061 44.9802 18.5059 44.5473 18.5059C44.2602 18.5059 43.9958 18.5674 43.7543 18.6904C43.5128 18.8089 43.3054 18.9867 43.1322 19.2236C42.959 19.4606 42.8246 19.75 42.7289 20.0918C42.6332 20.4336 42.5854 20.8278 42.5854 21.2744V21.5615C42.5854 21.9124 42.6332 22.2428 42.7289 22.5527C42.8292 22.8581 42.9727 23.127 43.1596 23.3594C43.351 23.5918 43.5811 23.7741 43.85 23.9062C44.1234 24.0384 44.4333 24.1045 44.7797 24.1045C45.2263 24.1045 45.6046 24.0133 45.9145 23.8311C46.2243 23.6488 46.4955 23.4049 46.7279 23.0996L47.4936 23.708C47.334 23.9495 47.1313 24.1797 46.8852 24.3984C46.6391 24.6172 46.336 24.7949 45.976 24.9316C45.6205 25.0684 45.199 25.1367 44.7113 25.1367ZM50.4305 19.0254V27.8438H49.159V17.6035H50.3211L50.4305 19.0254ZM55.4139 21.2402V21.3838C55.4139 21.9215 55.3501 22.4206 55.2225 22.8809C55.0949 23.3366 54.908 23.7331 54.6619 24.0703C54.4204 24.4076 54.1219 24.6696 53.7664 24.8564C53.4109 25.0433 53.0031 25.1367 52.5428 25.1367C52.0734 25.1367 51.6587 25.0592 51.2986 24.9043C50.9386 24.7493 50.6333 24.5238 50.3826 24.2275C50.132 23.9313 49.9314 23.5758 49.7811 23.1611C49.6352 22.7464 49.535 22.2793 49.4803 21.7598V20.9941C49.535 20.4473 49.6375 19.9574 49.7879 19.5244C49.9383 19.0915 50.1365 18.7223 50.3826 18.417C50.6333 18.1071 50.9363 17.8724 51.2918 17.7129C51.6473 17.5488 52.0574 17.4668 52.5223 17.4668C52.9871 17.4668 53.3995 17.5579 53.7596 17.7402C54.1196 17.918 54.4227 18.1732 54.6687 18.5059C54.9148 18.8385 55.0994 19.2373 55.2225 19.7021C55.3501 20.1624 55.4139 20.6751 55.4139 21.2402ZM54.1424 21.3838V21.2402C54.1424 20.8711 54.1036 20.5247 54.0262 20.2012C53.9487 19.873 53.8279 19.5859 53.6639 19.3398C53.5044 19.0892 53.2993 18.8932 53.0486 18.752C52.798 18.6061 52.4995 18.5332 52.1531 18.5332C51.8341 18.5332 51.5561 18.5879 51.3191 18.6973C51.0867 18.8066 50.8885 18.9548 50.7244 19.1416C50.5604 19.3239 50.4259 19.5335 50.3211 19.7705C50.2208 20.0029 50.1456 20.2445 50.0955 20.4951V22.2656C50.1867 22.5846 50.3143 22.8854 50.4783 23.168C50.6424 23.446 50.8611 23.6715 51.1346 23.8447C51.408 24.0133 51.7521 24.0977 52.1668 24.0977C52.5086 24.0977 52.8025 24.027 53.0486 23.8857C53.2993 23.7399 53.5044 23.5417 53.6639 23.291C53.8279 23.0404 53.9487 22.7533 54.0262 22.4297C54.1036 22.1016 54.1424 21.7529 54.1424 21.3838ZM60.1965 25.1367C59.6815 25.1367 59.2144 25.0501 58.7951 24.877C58.3804 24.6992 58.0227 24.4508 57.7219 24.1318C57.4257 23.8128 57.1978 23.4346 57.0383 22.9971C56.8788 22.5596 56.799 22.0811 56.799 21.5615V21.2744C56.799 20.6729 56.8879 20.1374 57.0656 19.668C57.2434 19.194 57.4849 18.793 57.7902 18.4648C58.0956 18.1367 58.4419 17.8883 58.8293 17.7197C59.2167 17.5511 59.6177 17.4668 60.0324 17.4668C60.5611 17.4668 61.0168 17.5579 61.3996 17.7402C61.787 17.9225 62.1037 18.1777 62.3498 18.5059C62.5959 18.8294 62.7782 19.2122 62.8967 19.6543C63.0152 20.0918 63.0744 20.5703 63.0744 21.0898V21.6572H57.551V20.625H61.8098V20.5293C61.7915 20.2012 61.7232 19.8822 61.6047 19.5723C61.4908 19.2624 61.3085 19.0072 61.0578 18.8066C60.8072 18.6061 60.4654 18.5059 60.0324 18.5059C59.7453 18.5059 59.481 18.5674 59.2395 18.6904C58.9979 18.8089 58.7906 18.9867 58.6174 19.2236C58.4442 19.4606 58.3098 19.75 58.2141 20.0918C58.1184 20.4336 58.0705 20.8278 58.0705 21.2744V21.5615C58.0705 21.9124 58.1184 22.2428 58.2141 22.5527C58.3143 22.8581 58.4579 23.127 58.6447 23.3594C58.8361 23.5918 59.0663 23.7741 59.3352 23.9062C59.6086 24.0384 59.9185 24.1045 60.2648 24.1045C60.7115 24.1045 61.0897 24.0133 61.3996 23.8311C61.7095 23.6488 61.9807 23.4049 62.2131 23.0996L62.9787 23.708C62.8192 23.9495 62.6164 24.1797 62.3703 24.3984C62.1242 24.6172 61.8212 24.7949 61.4611 24.9316C61.1057 25.0684 60.6841 25.1367 60.1965 25.1367ZM69.4293 17.6035V18.6494H66.0113V25H64.7467V17.6035H69.4293ZM73.6445 17.6035V25H72.373V17.6035H73.6445ZM76.126 17.6035V18.6289H69.9395V17.6035H76.126ZM78.8373 22.9971L82.2484 17.6035H83.5199V25H82.2484V19.6064L78.8373 25H77.5795V17.6035H78.8373V22.9971Z" fill="white"/>
</svg>
