<svg width="62" height="62" viewBox="0 0 62 62" fill="none" xmlns="http://www.w3.org/2000/svg">
<g filter="url(#filter0_dd_52801_10641)">
<g clip-path="url(#clip0_52801_10641)">
<rect x="11" y="7" width="40" height="40" rx="12" fill="#FFFBFE"/>
<rect x="11" y="7" width="40" height="40" rx="12" fill="#6750A4" fill-opacity="0.11"/>
<path fill-rule="evenodd" clip-rule="evenodd" d="M31 17C25.48 17 21 21.48 21 27C21 32.52 25.48 37 31 37C36.52 37 41 32.52 41 27C41 21.48 36.52 17 31 17ZM30 32V30H32V32H30ZM30 22V28H32V22H30Z" fill="#6750A4"/>
<rect opacity="0.12" x="11" y="7" width="40" height="40" fill="#6750A4"/>
</g>
</g>
<defs>
<filter id="filter0_dd_52801_10641" x="0" y="0" width="62" height="62" filterUnits="userSpaceOnUse" color-interpolation-filters="sRGB">
<feFlood flood-opacity="0" result="BackgroundImageFix"/>
<feColorMatrix in="SourceAlpha" type="matrix" values="0 0 0 0 0 0 0 0 0 0 0 0 0 0 0 0 0 0 127 0" result="hardAlpha"/>
<feOffset dy="1"/>
<feGaussianBlur stdDeviation="1.5"/>
<feComposite in2="hardAlpha" operator="out"/>
<feColorMatrix type="matrix" values="0 0 0 0 0 0 0 0 0 0 0 0 0 0 0 0 0 0 0.3 0"/>
<feBlend mode="normal" in2="BackgroundImageFix" result="effect1_dropShadow_52801_10641"/>
<feColorMatrix in="SourceAlpha" type="matrix" values="0 0 0 0 0 0 0 0 0 0 0 0 0 0 0 0 0 0 127 0" result="hardAlpha"/>
<feMorphology radius="3" operator="dilate" in="SourceAlpha" result="effect2_dropShadow_52801_10641"/>
<feOffset dy="4"/>
<feGaussianBlur stdDeviation="4"/>
<feComposite in2="hardAlpha" operator="out"/>
<feColorMatrix type="matrix" values="0 0 0 0 0 0 0 0 0 0 0 0 0 0 0 0 0 0 0.15 0"/>
<feBlend mode="normal" in2="effect1_dropShadow_52801_10641" result="effect2_dropShadow_52801_10641"/>
<feBlend mode="normal" in="SourceGraphic" in2="effect2_dropShadow_52801_10641" result="shape"/>
</filter>
<clipPath id="clip0_52801_10641">
<rect x="11" y="7" width="40" height="40" rx="12" fill="white"/>
</clipPath>
</defs>
</svg>
