<svg width="367" height="121" viewBox="0 0 367 121" fill="none" xmlns="http://www.w3.org/2000/svg">
<rect x="0.5" y="0.5" width="366" height="120" rx="15.5" fill="#FFFBFE"/>
<rect x="0.5" y="0.5" width="366" height="120" rx="15.5" stroke="#CAC4D0"/>
<path fill-rule="evenodd" clip-rule="evenodd" d="M183.5 35C174.944 35 168 41.944 168 50.5C168 59.056 174.944 66 183.5 66C192.056 66 199 59.056 199 50.5C199 41.944 192.056 35 183.5 35ZM181.95 58.25V55.15H185.05V58.25H181.95ZM181.95 42.75V52.05H185.05V42.75H181.95Z" fill="black"/>
<path d="M113.12 79.6396V81H105.785V79.6396H113.12ZM106.209 79.6396V83.4473H104.568L104.507 79.6396H106.209ZM114.446 79.6396L114.344 83.4404H112.73V79.6396H114.446ZM111.917 71.0469V72.4141H107.323V71.0469H111.917ZM113.229 71.0469V81H111.52V71.0469H113.229ZM106.981 71.0469H108.697L108.458 75.0801C108.421 75.7181 108.355 76.2923 108.26 76.8027C108.164 77.3132 108.048 77.7712 107.911 78.1768C107.779 78.5778 107.628 78.9333 107.46 79.2432C107.291 79.5485 107.111 79.8128 106.92 80.0361C106.728 80.2594 106.532 80.4508 106.332 80.6104C106.136 80.7653 105.942 80.8952 105.751 81H104.835V79.6396H105.279C105.402 79.5257 105.539 79.3617 105.689 79.1475C105.84 78.9287 105.985 78.6439 106.127 78.293C106.273 77.9375 106.4 77.4977 106.51 76.9736C106.619 76.4495 106.694 75.8184 106.735 75.0801L106.981 71.0469ZM115.366 77.3838V77.2266C115.366 76.6934 115.444 76.1989 115.599 75.7432C115.754 75.2829 115.977 74.8841 116.269 74.5469C116.565 74.2051 116.925 73.9408 117.349 73.7539C117.777 73.5625 118.26 73.4668 118.798 73.4668C119.34 73.4668 119.823 73.5625 120.247 73.7539C120.676 73.9408 121.038 74.2051 121.334 74.5469C121.63 74.8841 121.856 75.2829 122.011 75.7432C122.166 76.1989 122.243 76.6934 122.243 77.2266V77.3838C122.243 77.917 122.166 78.4115 122.011 78.8672C121.856 79.3229 121.63 79.7217 121.334 80.0635C121.038 80.4007 120.678 80.665 120.254 80.8564C119.83 81.0433 119.349 81.1367 118.812 81.1367C118.269 81.1367 117.784 81.0433 117.356 80.8564C116.932 80.665 116.572 80.4007 116.276 80.0635C115.979 79.7217 115.754 79.3229 115.599 78.8672C115.444 78.4115 115.366 77.917 115.366 77.3838ZM117.014 77.2266V77.3838C117.014 77.7165 117.048 78.0309 117.116 78.3271C117.185 78.6234 117.292 78.8831 117.438 79.1064C117.584 79.3298 117.77 79.5052 117.998 79.6328C118.226 79.7604 118.497 79.8242 118.812 79.8242C119.117 79.8242 119.381 79.7604 119.605 79.6328C119.833 79.5052 120.019 79.3298 120.165 79.1064C120.311 78.8831 120.418 78.6234 120.487 78.3271C120.559 78.0309 120.596 77.7165 120.596 77.3838V77.2266C120.596 76.8984 120.559 76.5885 120.487 76.2969C120.418 76.0007 120.309 75.7386 120.158 75.5107C120.013 75.2829 119.826 75.1051 119.598 74.9775C119.375 74.8454 119.108 74.7793 118.798 74.7793C118.488 74.7793 118.219 74.8454 117.991 74.9775C117.768 75.1051 117.584 75.2829 117.438 75.5107C117.292 75.7386 117.185 76.0007 117.116 76.2969C117.048 76.5885 117.014 76.8984 117.014 77.2266ZM124.572 73.6035H126.219L126.137 76.208C126.115 76.9645 126.028 77.6139 125.878 78.1562C125.727 78.6986 125.531 79.1566 125.29 79.5303C125.048 79.8994 124.775 80.2025 124.469 80.4395C124.169 80.6764 123.852 80.8633 123.519 81H123.034V79.7012L123.266 79.6875C123.462 79.4779 123.631 79.2682 123.772 79.0586C123.918 78.8444 124.041 78.6097 124.141 78.3545C124.241 78.0947 124.319 77.7917 124.374 77.4453C124.433 77.099 124.472 76.6865 124.49 76.208L124.572 73.6035ZM125.009 73.6035H129.699V81H128.058V74.998H125.009V73.6035ZM122.658 79.6875H130.711V83.2012H129.063V81H124.326V83.2012H122.651L122.658 79.6875ZM136.156 79.5166V75.9893C136.156 75.7249 136.108 75.4971 136.013 75.3057C135.917 75.1143 135.771 74.9661 135.575 74.8613C135.384 74.7565 135.142 74.7041 134.851 74.7041C134.582 74.7041 134.349 74.7497 134.153 74.8408C133.957 74.932 133.805 75.055 133.695 75.21C133.586 75.3649 133.531 75.5404 133.531 75.7363H131.891C131.891 75.4447 131.961 75.1621 132.103 74.8887C132.244 74.6152 132.449 74.3714 132.718 74.1572C132.987 73.943 133.308 73.7744 133.682 73.6514C134.055 73.5283 134.475 73.4668 134.939 73.4668C135.495 73.4668 135.988 73.5602 136.416 73.7471C136.849 73.9339 137.188 74.2165 137.435 74.5947C137.685 74.9684 137.811 75.4378 137.811 76.0029V79.291C137.811 79.6283 137.833 79.9313 137.879 80.2002C137.929 80.4645 138 80.6947 138.091 80.8906V81H136.402C136.325 80.8223 136.263 80.5967 136.218 80.3232C136.177 80.0452 136.156 79.7764 136.156 79.5166ZM136.396 76.502L136.409 77.5205H135.227C134.921 77.5205 134.652 77.5501 134.42 77.6094C134.187 77.6641 133.994 77.7461 133.839 77.8555C133.684 77.9648 133.568 78.097 133.49 78.252C133.413 78.4069 133.374 78.5824 133.374 78.7783C133.374 78.9743 133.42 79.1543 133.511 79.3184C133.602 79.4779 133.734 79.6032 133.907 79.6943C134.085 79.7855 134.299 79.8311 134.55 79.8311C134.887 79.8311 135.181 79.7627 135.432 79.626C135.687 79.4847 135.887 79.3138 136.033 79.1133C136.179 78.9082 136.257 78.7145 136.266 78.5322L136.799 79.2637C136.744 79.4505 136.651 79.651 136.519 79.8652C136.386 80.0794 136.213 80.2845 135.999 80.4805C135.789 80.6719 135.536 80.8291 135.24 80.9521C134.949 81.0752 134.611 81.1367 134.229 81.1367C133.745 81.1367 133.315 81.041 132.937 80.8496C132.558 80.6536 132.262 80.3916 132.048 80.0635C131.834 79.7308 131.727 79.3548 131.727 78.9355C131.727 78.5436 131.799 78.1973 131.945 77.8965C132.096 77.5911 132.314 77.3359 132.602 77.1309C132.893 76.9258 133.249 76.7708 133.668 76.666C134.087 76.5566 134.566 76.502 135.104 76.502H136.396ZM141.335 78.5938L144.241 73.6035H145.888V81H144.241V76.0029L141.335 81H139.688V73.6035H141.335V78.5938ZM143.803 70.7598H145.027C145.027 71.138 144.936 71.473 144.753 71.7646C144.576 72.0518 144.32 72.2773 143.988 72.4414C143.66 72.6055 143.268 72.6875 142.812 72.6875C142.124 72.6875 141.579 72.5098 141.178 72.1543C140.782 71.7943 140.583 71.3294 140.583 70.7598H141.807C141.807 71.015 141.882 71.2406 142.033 71.4365C142.188 71.6279 142.447 71.7236 142.812 71.7236C143.172 71.7236 143.427 71.6279 143.578 71.4365C143.728 71.2406 143.803 71.015 143.803 70.7598ZM151.163 73.6035V81H149.509V73.6035H151.163ZM153.59 73.6035V74.9023H147.123V73.6035H153.59ZM157.545 81.1367C156.998 81.1367 156.504 81.0479 156.062 80.8701C155.624 80.6878 155.251 80.4349 154.941 80.1113C154.635 79.7878 154.401 79.4072 154.237 78.9697C154.072 78.5322 153.99 78.0605 153.99 77.5547V77.2812C153.99 76.7025 154.075 76.1784 154.243 75.709C154.412 75.2396 154.647 74.8385 154.947 74.5059C155.248 74.1686 155.604 73.9111 156.014 73.7334C156.424 73.5557 156.868 73.4668 157.347 73.4668C157.876 73.4668 158.338 73.5557 158.735 73.7334C159.131 73.9111 159.459 74.1618 159.719 74.4854C159.983 74.8044 160.179 75.1849 160.307 75.627C160.439 76.069 160.505 76.5566 160.505 77.0898V77.7939H154.79V76.6113H158.878V76.4814C158.869 76.1852 158.81 75.9072 158.7 75.6475C158.596 75.3877 158.434 75.1781 158.215 75.0186C157.996 74.859 157.705 74.7793 157.34 74.7793C157.067 74.7793 156.823 74.8385 156.609 74.957C156.399 75.071 156.223 75.2373 156.082 75.4561C155.941 75.6748 155.832 75.9391 155.754 76.249C155.681 76.5544 155.645 76.8984 155.645 77.2812V77.5547C155.645 77.8783 155.688 78.179 155.775 78.457C155.866 78.7305 155.998 78.9697 156.171 79.1748C156.344 79.3799 156.554 79.5417 156.8 79.6602C157.046 79.7741 157.326 79.8311 157.641 79.8311C158.037 79.8311 158.39 79.7513 158.7 79.5918C159.01 79.4323 159.279 79.2067 159.507 78.915L160.375 79.7559C160.216 79.9883 160.008 80.2116 159.753 80.4258C159.498 80.6354 159.186 80.8063 158.817 80.9385C158.452 81.0706 158.028 81.1367 157.545 81.1367ZM174.026 73.6035V74.916H170.375V73.6035H174.026ZM170.765 73.6035V81H169.118V73.6035H170.765ZM175.318 73.6035V81H173.663V73.6035H175.318ZM180.422 81.1367C179.875 81.1367 179.38 81.0479 178.938 80.8701C178.501 80.6878 178.127 80.4349 177.817 80.1113C177.512 79.7878 177.277 79.4072 177.113 78.9697C176.949 78.5322 176.867 78.0605 176.867 77.5547V77.2812C176.867 76.7025 176.951 76.1784 177.12 75.709C177.289 75.2396 177.523 74.8385 177.824 74.5059C178.125 74.1686 178.48 73.9111 178.89 73.7334C179.301 73.5557 179.745 73.4668 180.223 73.4668C180.752 73.4668 181.215 73.5557 181.611 73.7334C182.008 73.9111 182.336 74.1618 182.596 74.4854C182.86 74.8044 183.056 75.1849 183.183 75.627C183.316 76.069 183.382 76.5566 183.382 77.0898V77.7939H177.667V76.6113H181.755V76.4814C181.746 76.1852 181.686 75.9072 181.577 75.6475C181.472 75.3877 181.31 75.1781 181.092 75.0186C180.873 74.859 180.581 74.7793 180.217 74.7793C179.943 74.7793 179.699 74.8385 179.485 74.957C179.276 75.071 179.1 75.2373 178.959 75.4561C178.818 75.6748 178.708 75.9391 178.631 76.249C178.558 76.5544 178.521 76.8984 178.521 77.2812V77.5547C178.521 77.8783 178.565 78.179 178.651 78.457C178.742 78.7305 178.874 78.9697 179.048 79.1748C179.221 79.3799 179.43 79.5417 179.677 79.6602C179.923 79.7741 180.203 79.8311 180.517 79.8311C180.914 79.8311 181.267 79.7513 181.577 79.5918C181.887 79.4323 182.156 79.2067 182.384 78.915L183.252 79.7559C183.092 79.9883 182.885 80.2116 182.63 80.4258C182.374 80.6354 182.062 80.8063 181.693 80.9385C181.329 81.0706 180.905 81.1367 180.422 81.1367ZM186.421 75.0254V83.8438H184.774V73.6035H186.291L186.421 75.0254ZM191.24 77.2334V77.377C191.24 77.9147 191.177 78.4137 191.049 78.874C190.926 79.3298 190.741 79.7285 190.495 80.0703C190.254 80.4076 189.955 80.6696 189.6 80.8564C189.244 81.0433 188.834 81.1367 188.369 81.1367C187.909 81.1367 187.506 81.0524 187.159 80.8838C186.818 80.7106 186.528 80.4668 186.291 80.1523C186.054 79.8379 185.863 79.4688 185.717 79.0449C185.576 78.6165 185.475 78.1471 185.416 77.6367V77.083C185.475 76.5407 185.576 76.0485 185.717 75.6064C185.863 75.1644 186.054 74.7839 186.291 74.4648C186.528 74.1458 186.818 73.8997 187.159 73.7266C187.501 73.5534 187.9 73.4668 188.356 73.4668C188.821 73.4668 189.233 73.5579 189.593 73.7402C189.953 73.918 190.256 74.1732 190.502 74.5059C190.748 74.834 190.933 75.2305 191.056 75.6953C191.179 76.1556 191.24 76.6683 191.24 77.2334ZM189.593 77.377V77.2334C189.593 76.8916 189.561 76.5749 189.497 76.2832C189.433 75.987 189.333 75.7272 189.196 75.5039C189.06 75.2806 188.884 75.1074 188.67 74.9844C188.46 74.8568 188.208 74.793 187.911 74.793C187.62 74.793 187.369 74.8431 187.159 74.9434C186.95 75.0391 186.774 75.1735 186.633 75.3467C186.492 75.5199 186.382 75.7227 186.305 75.9551C186.227 76.1829 186.173 76.4313 186.141 76.7002V78.0264C186.196 78.3545 186.289 78.6553 186.421 78.9287C186.553 79.2021 186.74 79.4209 186.982 79.585C187.228 79.7445 187.542 79.8242 187.925 79.8242C188.221 79.8242 188.474 79.7604 188.684 79.6328C188.893 79.5052 189.064 79.3298 189.196 79.1064C189.333 78.8786 189.433 78.6165 189.497 78.3203C189.561 78.0241 189.593 77.7096 189.593 77.377ZM192.796 73.6035H194.444V79.6875H196.789V73.6035H198.45V79.6875H200.788V73.6035H202.435V81H192.796V73.6035ZM206.459 80.1934L208.469 73.6035H210.232L207.266 82.1279C207.197 82.3102 207.108 82.5085 206.999 82.7227C206.89 82.9368 206.746 83.1396 206.568 83.3311C206.395 83.527 206.179 83.6842 205.919 83.8027C205.659 83.9258 205.345 83.9873 204.976 83.9873C204.83 83.9873 204.688 83.9736 204.552 83.9463C204.42 83.9235 204.294 83.8984 204.176 83.8711L204.169 82.6133C204.215 82.6178 204.269 82.6224 204.333 82.627C204.401 82.6315 204.456 82.6338 204.497 82.6338C204.771 82.6338 204.998 82.5996 205.181 82.5312C205.363 82.4674 205.511 82.3626 205.625 82.2168C205.743 82.071 205.844 81.875 205.926 81.6289L206.459 80.1934ZM205.324 73.6035L207.081 79.1406L207.375 80.877L206.233 81.1709L203.547 73.6035H205.324ZM217.884 79.8242C218.152 79.8242 218.394 79.7718 218.608 79.667C218.827 79.5576 219.002 79.4072 219.135 79.2158C219.271 79.0244 219.346 78.8034 219.36 78.5527H220.912C220.903 79.0312 220.762 79.4665 220.488 79.8584C220.215 80.2503 219.852 80.5625 219.401 80.7949C218.95 81.0228 218.451 81.1367 217.904 81.1367C217.339 81.1367 216.847 81.041 216.428 80.8496C216.008 80.6536 215.66 80.3848 215.382 80.043C215.104 79.7012 214.894 79.307 214.753 78.8604C214.616 78.4137 214.548 77.9352 214.548 77.4248V77.1855C214.548 76.6751 214.616 76.1966 214.753 75.75C214.894 75.2988 215.104 74.9023 215.382 74.5605C215.66 74.2188 216.008 73.9521 216.428 73.7607C216.847 73.5648 217.337 73.4668 217.897 73.4668C218.49 73.4668 219.009 73.5853 219.456 73.8223C219.902 74.0547 220.253 74.3805 220.509 74.7998C220.768 75.2145 220.903 75.6976 220.912 76.249H219.36C219.346 75.9756 219.278 75.7295 219.155 75.5107C219.037 75.2874 218.868 75.1097 218.649 74.9775C218.435 74.8454 218.178 74.7793 217.877 74.7793C217.544 74.7793 217.268 74.8477 217.05 74.9844C216.831 75.1165 216.66 75.2988 216.537 75.5312C216.414 75.7591 216.325 76.0166 216.27 76.3037C216.22 76.5863 216.195 76.8802 216.195 77.1855V77.4248C216.195 77.7301 216.22 78.0264 216.27 78.3135C216.32 78.6006 216.407 78.8581 216.53 79.0859C216.658 79.3092 216.831 79.4893 217.05 79.626C217.268 79.7581 217.546 79.8242 217.884 79.8242ZM225.708 73.6035V81H224.054V73.6035H225.708ZM228.135 73.6035V74.9023H221.668V73.6035H228.135ZM230.99 75.0254V83.8438H229.342V73.6035H230.86L230.99 75.0254ZM235.809 77.2334V77.377C235.809 77.9147 235.745 78.4137 235.618 78.874C235.495 79.3298 235.31 79.7285 235.064 80.0703C234.823 80.4076 234.524 80.6696 234.169 80.8564C233.813 81.0433 233.403 81.1367 232.938 81.1367C232.478 81.1367 232.074 81.0524 231.728 80.8838C231.386 80.7106 231.097 80.4668 230.86 80.1523C230.623 79.8379 230.432 79.4688 230.286 79.0449C230.144 78.6165 230.044 78.1471 229.985 77.6367V77.083C230.044 76.5407 230.144 76.0485 230.286 75.6064C230.432 75.1644 230.623 74.7839 230.86 74.4648C231.097 74.1458 231.386 73.8997 231.728 73.7266C232.07 73.5534 232.469 73.4668 232.924 73.4668C233.389 73.4668 233.802 73.5579 234.162 73.7402C234.522 73.918 234.825 74.1732 235.071 74.5059C235.317 74.834 235.502 75.2305 235.625 75.6953C235.748 76.1556 235.809 76.6683 235.809 77.2334ZM234.162 77.377V77.2334C234.162 76.8916 234.13 76.5749 234.066 76.2832C234.002 75.987 233.902 75.7272 233.765 75.5039C233.629 75.2806 233.453 75.1074 233.239 74.9844C233.029 74.8568 232.776 74.793 232.48 74.793C232.188 74.793 231.938 74.8431 231.728 74.9434C231.518 75.0391 231.343 75.1735 231.202 75.3467C231.06 75.5199 230.951 75.7227 230.874 75.9551C230.796 76.1829 230.741 76.4313 230.71 76.7002V78.0264C230.764 78.3545 230.858 78.6553 230.99 78.9287C231.122 79.2021 231.309 79.4209 231.55 79.585C231.796 79.7445 232.111 79.8242 232.494 79.8242C232.79 79.8242 233.043 79.7604 233.253 79.6328C233.462 79.5052 233.633 79.3298 233.765 79.1064C233.902 78.8786 234.002 78.6165 234.066 78.3203C234.13 78.0241 234.162 77.7096 234.162 77.377ZM241.48 79.5166V75.9893C241.48 75.7249 241.433 75.4971 241.337 75.3057C241.241 75.1143 241.095 74.9661 240.899 74.8613C240.708 74.7565 240.466 74.7041 240.175 74.7041C239.906 74.7041 239.674 74.7497 239.478 74.8408C239.282 74.932 239.129 75.055 239.02 75.21C238.91 75.3649 238.855 75.5404 238.855 75.7363H237.215C237.215 75.4447 237.285 75.1621 237.427 74.8887C237.568 74.6152 237.773 74.3714 238.042 74.1572C238.311 73.943 238.632 73.7744 239.006 73.6514C239.38 73.5283 239.799 73.4668 240.264 73.4668C240.82 73.4668 241.312 73.5602 241.74 73.7471C242.173 73.9339 242.513 74.2165 242.759 74.5947C243.009 74.9684 243.135 75.4378 243.135 76.0029V79.291C243.135 79.6283 243.158 79.9313 243.203 80.2002C243.253 80.4645 243.324 80.6947 243.415 80.8906V81H241.727C241.649 80.8223 241.588 80.5967 241.542 80.3232C241.501 80.0452 241.48 79.7764 241.48 79.5166ZM241.72 76.502L241.733 77.5205H240.551C240.245 77.5205 239.977 77.5501 239.744 77.6094C239.512 77.6641 239.318 77.7461 239.163 77.8555C239.008 77.9648 238.892 78.097 238.814 78.252C238.737 78.4069 238.698 78.5824 238.698 78.7783C238.698 78.9743 238.744 79.1543 238.835 79.3184C238.926 79.4779 239.058 79.6032 239.231 79.6943C239.409 79.7855 239.623 79.8311 239.874 79.8311C240.211 79.8311 240.505 79.7627 240.756 79.626C241.011 79.4847 241.212 79.3138 241.357 79.1133C241.503 78.9082 241.581 78.7145 241.59 78.5322L242.123 79.2637C242.068 79.4505 241.975 79.651 241.843 79.8652C241.711 80.0794 241.537 80.2845 241.323 80.4805C241.114 80.6719 240.861 80.8291 240.564 80.9521C240.273 81.0752 239.936 81.1367 239.553 81.1367C239.07 81.1367 238.639 81.041 238.261 80.8496C237.882 80.6536 237.586 80.3916 237.372 80.0635C237.158 79.7308 237.051 79.3548 237.051 78.9355C237.051 78.5436 237.124 78.1973 237.27 77.8965C237.42 77.5911 237.639 77.3359 237.926 77.1309C238.217 76.9258 238.573 76.7708 238.992 76.666C239.411 76.5566 239.89 76.502 240.428 76.502H241.72ZM248.553 77.835H246.188L246.174 76.6729H248.116C248.435 76.6729 248.697 76.641 248.902 76.5771C249.111 76.5133 249.266 76.4176 249.367 76.29C249.467 76.1579 249.517 75.9984 249.517 75.8115C249.517 75.6566 249.487 75.5221 249.428 75.4082C249.369 75.2897 249.278 75.194 249.155 75.1211C249.036 75.0436 248.886 74.9889 248.704 74.957C248.526 74.9206 248.318 74.9023 248.081 74.9023H246.735V81H245.087V73.6035H248.081C248.555 73.6035 248.982 73.6445 249.36 73.7266C249.743 73.8086 250.068 73.9339 250.337 74.1025C250.606 74.2712 250.811 74.4854 250.953 74.7451C251.098 75.0003 251.171 75.3011 251.171 75.6475C251.171 75.8753 251.121 76.0895 251.021 76.29C250.925 76.4906 250.782 76.6683 250.59 76.8232C250.399 76.9782 250.164 77.1058 249.886 77.2061C249.608 77.3018 249.289 77.361 248.929 77.3838L248.553 77.835ZM248.553 81H245.709L246.366 79.7012H248.553C248.845 79.7012 249.086 79.6647 249.278 79.5918C249.469 79.5189 249.61 79.4141 249.702 79.2773C249.797 79.1361 249.845 78.9697 249.845 78.7783C249.845 78.5824 249.8 78.4137 249.708 78.2725C249.617 78.1312 249.476 78.0241 249.285 77.9512C249.098 77.8737 248.854 77.835 248.553 77.835H246.673L246.687 76.6729H248.922L249.394 77.124C249.863 77.1559 250.253 77.2562 250.563 77.4248C250.873 77.5934 251.105 77.8053 251.26 78.0605C251.415 78.3158 251.493 78.5938 251.493 78.8945C251.493 79.2409 251.426 79.5462 251.294 79.8105C251.167 80.0749 250.975 80.2959 250.72 80.4736C250.469 80.6468 250.162 80.779 249.797 80.8701C249.433 80.9567 249.018 81 248.553 81ZM255.079 80.1934L257.089 73.6035H258.852L255.886 82.1279C255.817 82.3102 255.728 82.5085 255.619 82.7227C255.51 82.9368 255.366 83.1396 255.188 83.3311C255.015 83.527 254.799 83.6842 254.539 83.8027C254.279 83.9258 253.965 83.9873 253.596 83.9873C253.45 83.9873 253.308 83.9736 253.172 83.9463C253.04 83.9235 252.914 83.8984 252.796 83.8711L252.789 82.6133C252.834 82.6178 252.889 82.6224 252.953 82.627C253.021 82.6315 253.076 82.6338 253.117 82.6338C253.39 82.6338 253.618 82.5996 253.801 82.5312C253.983 82.4674 254.131 82.3626 254.245 82.2168C254.363 82.071 254.464 81.875 254.546 81.6289L255.079 80.1934ZM253.944 73.6035L255.701 79.1406L255.995 80.877L254.853 81.1709L252.167 73.6035H253.944ZM261.796 71.0469L261.632 78.0674H260.224L260.053 71.0469H261.796ZM260.005 80.2207C260.005 79.9701 260.087 79.7604 260.251 79.5918C260.42 79.4186 260.652 79.332 260.948 79.332C261.24 79.332 261.47 79.4186 261.639 79.5918C261.807 79.7604 261.892 79.9701 261.892 80.2207C261.892 80.4622 261.807 80.6696 261.639 80.8428C261.47 81.0114 261.24 81.0957 260.948 81.0957C260.652 81.0957 260.42 81.0114 260.251 80.8428C260.087 80.6696 260.005 80.4622 260.005 80.2207Z" fill="#1C1B1F"/>
</svg>
