<svg width="280" height="56" viewBox="0 0 280 56" fill="none" xmlns="http://www.w3.org/2000/svg">
<rect x="0.5" y="0.5" width="279" height="55" rx="3.5" stroke="#79747E"/>
<path fill-rule="evenodd" clip-rule="evenodd" d="M18 26C16.9 26 16 26.9 16 28C16 29.1 16.9 30 18 30C19.1 30 20 29.1 20 28C20 26.9 19.1 26 18 26ZM30 26C28.9 26 28 26.9 28 28C28 29.1 28.9 30 30 30C31.1 30 32 29.1 32 28C32 26.9 31.1 26 30 26ZM22 28C22 26.9 22.9 26 24 26C25.1 26 26 26.9 26 28C26 29.1 25.1 30 24 30C22.9 30 22 29.1 22 28Z" fill="#49454F"/>
</svg>
