<svg width="245" height="68" viewBox="0 0 245 68" fill="none" xmlns="http://www.w3.org/2000/svg">
<rect width="245" height="68" rx="4" fill="#E6E1E5"/>
<path d="M20.7031 34.3447H18.1807L18.167 33.2852H20.457C20.8353 33.2852 21.1657 33.2214 21.4482 33.0938C21.7308 32.9661 21.9495 32.7839 22.1045 32.5469C22.264 32.3053 22.3438 32.0182 22.3438 31.6855C22.3438 31.321 22.2731 31.0247 22.1318 30.7969C21.9951 30.5645 21.7832 30.3958 21.4961 30.291C21.2135 30.1816 20.8535 30.127 20.416 30.127H18.4746V39H17.1553V29.0469H20.416C20.9264 29.0469 21.3822 29.0993 21.7832 29.2041C22.1842 29.3044 22.5238 29.4639 22.8018 29.6826C23.0843 29.8968 23.2985 30.1702 23.4443 30.5029C23.5902 30.8356 23.6631 31.2344 23.6631 31.6992C23.6631 32.1094 23.5583 32.4808 23.3486 32.8135C23.139 33.1416 22.8473 33.4105 22.4736 33.6201C22.1045 33.8298 21.6715 33.9642 21.1748 34.0234L20.7031 34.3447ZM20.6416 39H17.6611L18.4062 37.9268H20.6416C21.0609 37.9268 21.4163 37.8538 21.708 37.708C22.0042 37.5622 22.2298 37.3571 22.3848 37.0928C22.5397 36.8239 22.6172 36.5072 22.6172 36.1426C22.6172 35.7734 22.5511 35.4544 22.4189 35.1855C22.2868 34.9167 22.0794 34.7093 21.7969 34.5635C21.5143 34.4176 21.1497 34.3447 20.7031 34.3447H18.8232L18.8369 33.2852H21.4072L21.6875 33.668C22.166 33.709 22.5716 33.8457 22.9043 34.0781C23.237 34.306 23.4899 34.5977 23.6631 34.9531C23.8408 35.3086 23.9297 35.7005 23.9297 36.1289C23.9297 36.7487 23.793 37.2728 23.5195 37.7012C23.2507 38.125 22.8701 38.4486 22.3779 38.6719C21.8857 38.8906 21.307 39 20.6416 39ZM30.2979 37.7354V33.9277C30.2979 33.6361 30.2386 33.3831 30.1201 33.1689C30.0062 32.9502 29.833 32.7816 29.6006 32.6631C29.3682 32.5446 29.0811 32.4854 28.7393 32.4854C28.4202 32.4854 28.14 32.54 27.8984 32.6494C27.6615 32.7588 27.4746 32.9023 27.3379 33.0801C27.2057 33.2578 27.1396 33.4492 27.1396 33.6543H25.875C25.875 33.39 25.9434 33.1279 26.0801 32.8682C26.2168 32.6084 26.4128 32.3737 26.668 32.1641C26.9277 31.9499 27.2376 31.7812 27.5977 31.6582C27.9622 31.5306 28.3678 31.4668 28.8145 31.4668C29.3522 31.4668 29.8262 31.5579 30.2363 31.7402C30.651 31.9225 30.9746 32.1982 31.207 32.5674C31.444 32.932 31.5625 33.39 31.5625 33.9414V37.3867C31.5625 37.6328 31.583 37.8949 31.624 38.1729C31.6696 38.4508 31.7357 38.6901 31.8223 38.8906V39H30.5029C30.4391 38.8542 30.389 38.6605 30.3525 38.4189C30.3161 38.1729 30.2979 37.945 30.2979 37.7354ZM30.5166 34.5156L30.5303 35.4043H29.252C28.8919 35.4043 28.5706 35.4339 28.2881 35.4932C28.0055 35.5479 27.7686 35.6322 27.5771 35.7461C27.3857 35.86 27.2399 36.0036 27.1396 36.1768C27.0394 36.3454 26.9893 36.5436 26.9893 36.7715C26.9893 37.0039 27.0417 37.2158 27.1465 37.4072C27.2513 37.5986 27.4085 37.7513 27.6182 37.8652C27.8324 37.9746 28.0944 38.0293 28.4043 38.0293C28.7917 38.0293 29.1335 37.9473 29.4297 37.7832C29.7259 37.6191 29.9606 37.4186 30.1338 37.1816C30.3115 36.9447 30.4072 36.7145 30.4209 36.4912L30.9609 37.0996C30.929 37.291 30.8424 37.5029 30.7012 37.7354C30.5599 37.9678 30.3708 38.1911 30.1338 38.4053C29.9014 38.6149 29.6234 38.7904 29.2998 38.9316C28.9808 39.0684 28.6208 39.1367 28.2197 39.1367C27.7184 39.1367 27.2786 39.0387 26.9004 38.8428C26.5267 38.6468 26.235 38.3848 26.0254 38.0566C25.8203 37.724 25.7178 37.3525 25.7178 36.9424C25.7178 36.5459 25.7952 36.1973 25.9502 35.8965C26.1051 35.5911 26.3285 35.3382 26.6201 35.1377C26.9118 34.9326 27.2627 34.7777 27.6729 34.6729C28.083 34.568 28.541 34.5156 29.0469 34.5156H30.5166ZM33.9111 31.6035H35.1758V37.9609H37.8828V31.6035H39.1543V37.9609H41.8545V31.6035H43.1191V39H33.9111V31.6035ZM51.8701 35.4658H50.5098V34.6865H51.7676C52.1185 34.6865 52.3965 34.6432 52.6016 34.5566C52.8066 34.4655 52.9525 34.3402 53.0391 34.1807C53.1257 34.0212 53.1689 33.8343 53.1689 33.6201C53.1689 33.4287 53.1188 33.2487 53.0186 33.0801C52.9229 32.9069 52.7679 32.7679 52.5537 32.6631C52.3395 32.5537 52.0524 32.499 51.6924 32.499C51.4007 32.499 51.1364 32.5514 50.8994 32.6562C50.6624 32.7565 50.4733 32.8955 50.332 33.0732C50.1953 33.2464 50.127 33.4424 50.127 33.6611H48.8623C48.8623 33.21 48.9899 32.8226 49.2451 32.499C49.5049 32.1709 49.849 31.918 50.2773 31.7402C50.7103 31.5625 51.182 31.4736 51.6924 31.4736C52.1208 31.4736 52.5036 31.5215 52.8408 31.6172C53.1826 31.7083 53.472 31.8451 53.709 32.0273C53.946 32.2051 54.126 32.4284 54.249 32.6973C54.3766 32.9616 54.4404 33.2692 54.4404 33.6201C54.4404 33.8708 54.3812 34.1077 54.2627 34.3311C54.1442 34.5544 53.9733 34.7526 53.75 34.9258C53.5267 35.0944 53.2555 35.2266 52.9365 35.3223C52.6221 35.418 52.2666 35.4658 51.8701 35.4658ZM50.5098 34.9873H51.8701C52.3122 34.9873 52.7018 35.0306 53.0391 35.1172C53.3763 35.1992 53.6589 35.3223 53.8867 35.4863C54.1146 35.6504 54.2855 35.8532 54.3994 36.0947C54.5179 36.3317 54.5771 36.6051 54.5771 36.915C54.5771 37.2614 54.5065 37.5736 54.3652 37.8516C54.2285 38.125 54.0326 38.3574 53.7773 38.5488C53.5221 38.7402 53.2168 38.8861 52.8613 38.9863C52.5104 39.0866 52.1208 39.1367 51.6924 39.1367C51.2139 39.1367 50.749 39.0547 50.2979 38.8906C49.8467 38.7266 49.4753 38.4736 49.1836 38.1318C48.8919 37.7855 48.7461 37.3457 48.7461 36.8125H50.0107C50.0107 37.0358 50.0814 37.2477 50.2227 37.4482C50.3639 37.6488 50.5599 37.8105 50.8105 37.9336C51.0658 38.0566 51.3597 38.1182 51.6924 38.1182C52.0479 38.1182 52.3441 38.0635 52.5811 37.9541C52.818 37.8447 52.9958 37.6989 53.1143 37.5166C53.2373 37.3343 53.2988 37.1361 53.2988 36.9219C53.2988 36.6439 53.2441 36.4206 53.1348 36.252C53.0254 36.0833 52.8568 35.9603 52.6289 35.8828C52.4056 35.8008 52.1185 35.7598 51.7676 35.7598H50.5098V34.9873ZM60.8291 37.7354V33.9277C60.8291 33.6361 60.7699 33.3831 60.6514 33.1689C60.5374 32.9502 60.3643 32.7816 60.1318 32.6631C59.8994 32.5446 59.6123 32.4854 59.2705 32.4854C58.9515 32.4854 58.6712 32.54 58.4297 32.6494C58.1927 32.7588 58.0059 32.9023 57.8691 33.0801C57.737 33.2578 57.6709 33.4492 57.6709 33.6543H56.4062C56.4062 33.39 56.4746 33.1279 56.6113 32.8682C56.748 32.6084 56.944 32.3737 57.1992 32.1641C57.459 31.9499 57.7689 31.7812 58.1289 31.6582C58.4935 31.5306 58.8991 31.4668 59.3457 31.4668C59.8835 31.4668 60.3574 31.5579 60.7676 31.7402C61.1823 31.9225 61.5059 32.1982 61.7383 32.5674C61.9753 32.932 62.0938 33.39 62.0938 33.9414V37.3867C62.0938 37.6328 62.1143 37.8949 62.1553 38.1729C62.2008 38.4508 62.2669 38.6901 62.3535 38.8906V39H61.0342C60.9704 38.8542 60.9202 38.6605 60.8838 38.4189C60.8473 38.1729 60.8291 37.945 60.8291 37.7354ZM61.0479 34.5156L61.0615 35.4043H59.7832C59.4232 35.4043 59.1019 35.4339 58.8193 35.4932C58.5368 35.5479 58.2998 35.6322 58.1084 35.7461C57.917 35.86 57.7712 36.0036 57.6709 36.1768C57.5706 36.3454 57.5205 36.5436 57.5205 36.7715C57.5205 37.0039 57.5729 37.2158 57.6777 37.4072C57.7826 37.5986 57.9398 37.7513 58.1494 37.8652C58.3636 37.9746 58.6257 38.0293 58.9355 38.0293C59.3229 38.0293 59.6647 37.9473 59.9609 37.7832C60.2572 37.6191 60.4919 37.4186 60.665 37.1816C60.8428 36.9447 60.9385 36.7145 60.9521 36.4912L61.4922 37.0996C61.4603 37.291 61.3737 37.5029 61.2324 37.7354C61.0911 37.9678 60.902 38.1911 60.665 38.4053C60.4326 38.6149 60.1546 38.7904 59.8311 38.9316C59.512 39.0684 59.152 39.1367 58.751 39.1367C58.2497 39.1367 57.8099 39.0387 57.4316 38.8428C57.0579 38.6468 56.7663 38.3848 56.5566 38.0566C56.3516 37.724 56.249 37.3525 56.249 36.9424C56.249 36.5459 56.3265 36.1973 56.4814 35.8965C56.6364 35.5911 56.8597 35.3382 57.1514 35.1377C57.443 34.9326 57.7939 34.7777 58.2041 34.6729C58.6143 34.568 59.0723 34.5156 59.5781 34.5156H61.0479ZM69.2617 31.6035V32.6494H65.5225V31.6035H69.2617ZM65.707 31.6035V39H64.4424V31.6035H65.707ZM70.3828 31.6035V39H69.1113V31.6035H70.3828ZM74.0303 36.9971L77.4414 31.6035H78.7129V39H77.4414V33.6064L74.0303 39H72.7725V31.6035H74.0303V36.9971ZM84.0078 31.6035V39H82.7363V31.6035H84.0078ZM86.4893 31.6035V32.6289H80.3027V31.6035H86.4893ZM91.3711 35.3838V35.2266C91.3711 34.6934 91.4486 34.1989 91.6035 33.7432C91.7585 33.2829 91.9818 32.8841 92.2734 32.5469C92.5651 32.2051 92.9183 31.9408 93.333 31.7539C93.7477 31.5625 94.2126 31.4668 94.7275 31.4668C95.2471 31.4668 95.7142 31.5625 96.1289 31.7539C96.5482 31.9408 96.9036 32.2051 97.1953 32.5469C97.4915 32.8841 97.7171 33.2829 97.8721 33.7432C98.027 34.1989 98.1045 34.6934 98.1045 35.2266V35.3838C98.1045 35.917 98.027 36.4115 97.8721 36.8672C97.7171 37.3229 97.4915 37.7217 97.1953 38.0635C96.9036 38.4007 96.5505 38.665 96.1357 38.8564C95.7256 39.0433 95.2607 39.1367 94.7412 39.1367C94.2217 39.1367 93.7546 39.0433 93.3398 38.8564C92.9251 38.665 92.5697 38.4007 92.2734 38.0635C91.9818 37.7217 91.7585 37.3229 91.6035 36.8672C91.4486 36.4115 91.3711 35.917 91.3711 35.3838ZM92.6357 35.2266V35.3838C92.6357 35.7529 92.679 36.1016 92.7656 36.4297C92.8522 36.7533 92.9821 37.0404 93.1553 37.291C93.333 37.5417 93.554 37.7399 93.8184 37.8857C94.0827 38.027 94.3903 38.0977 94.7412 38.0977C95.0876 38.0977 95.3906 38.027 95.6504 37.8857C95.9147 37.7399 96.1335 37.5417 96.3066 37.291C96.4798 37.0404 96.6097 36.7533 96.6963 36.4297C96.7874 36.1016 96.833 35.7529 96.833 35.3838V35.2266C96.833 34.862 96.7874 34.5179 96.6963 34.1943C96.6097 33.8662 96.4775 33.5768 96.2998 33.3262C96.1266 33.071 95.9079 32.8704 95.6436 32.7246C95.3838 32.5788 95.0785 32.5059 94.7275 32.5059C94.3812 32.5059 94.0758 32.5788 93.8115 32.7246C93.5518 32.8704 93.333 33.071 93.1553 33.3262C92.9821 33.5768 92.8522 33.8662 92.7656 34.1943C92.679 34.5179 92.6357 34.862 92.6357 35.2266ZM104.685 28.3838H105.724C105.724 28.8304 105.655 29.1859 105.519 29.4502C105.382 29.71 105.195 29.9105 104.958 30.0518C104.726 30.193 104.461 30.3001 104.165 30.373C103.873 30.446 103.57 30.5166 103.256 30.585C102.864 30.667 102.499 30.7969 102.162 30.9746C101.829 31.1478 101.542 31.3939 101.301 31.7129C101.064 32.0319 100.888 32.4466 100.774 32.957C100.665 33.4674 100.635 34.0986 100.686 34.8506V35.4795H99.6465V34.8506C99.6465 34.0075 99.7262 33.2715 99.8857 32.6426C100.05 32.0137 100.28 31.4827 100.576 31.0498C100.872 30.6169 101.223 30.2728 101.629 30.0176C102.039 29.7624 102.49 29.5869 102.982 29.4912C103.338 29.4229 103.643 29.3499 103.898 29.2725C104.154 29.1904 104.347 29.0811 104.479 28.9443C104.616 28.8076 104.685 28.6208 104.685 28.3838ZM103.188 32.0273C103.671 32.0273 104.101 32.1117 104.479 32.2803C104.858 32.4489 105.179 32.6836 105.443 32.9844C105.708 33.2852 105.908 33.6406 106.045 34.0508C106.186 34.4564 106.257 34.8984 106.257 35.377V35.5273C106.257 36.0423 106.182 36.5208 106.031 36.9629C105.885 37.4004 105.669 37.7832 105.382 38.1113C105.099 38.4349 104.753 38.6878 104.343 38.8701C103.937 39.0524 103.475 39.1436 102.955 39.1436C102.436 39.1436 101.971 39.0524 101.561 38.8701C101.155 38.6878 100.809 38.4349 100.521 38.1113C100.234 37.7832 100.016 37.4004 99.8652 36.9629C99.7194 36.5208 99.6465 36.0423 99.6465 35.5273V35.377C99.6465 35.263 99.667 35.1514 99.708 35.042C99.749 34.9326 99.7992 34.821 99.8584 34.707C99.9222 34.5931 99.9792 34.4723 100.029 34.3447C100.198 33.9346 100.428 33.554 100.72 33.2031C101.016 32.8522 101.369 32.5697 101.779 32.3555C102.194 32.1367 102.663 32.0273 103.188 32.0273ZM102.941 33.0596C102.477 33.0596 102.094 33.1667 101.793 33.3809C101.497 33.5951 101.276 33.8799 101.13 34.2354C100.984 34.5863 100.911 34.9668 100.911 35.377V35.5273C100.911 35.8737 100.952 36.2018 101.034 36.5117C101.116 36.8216 101.239 37.0973 101.403 37.3389C101.572 37.5758 101.784 37.7627 102.039 37.8994C102.299 38.0361 102.604 38.1045 102.955 38.1045C103.306 38.1045 103.609 38.0361 103.864 37.8994C104.119 37.7627 104.329 37.5758 104.493 37.3389C104.657 37.0973 104.78 36.8216 104.862 36.5117C104.944 36.2018 104.985 35.8737 104.985 35.5273V35.377C104.985 35.0671 104.944 34.7731 104.862 34.4951C104.78 34.2171 104.655 33.971 104.486 33.7568C104.322 33.5426 104.11 33.374 103.851 33.251C103.595 33.1234 103.292 33.0596 102.941 33.0596ZM109.084 33.0254V41.8438H107.812V31.6035H108.975L109.084 33.0254ZM114.067 35.2402V35.3838C114.067 35.9215 114.004 36.4206 113.876 36.8809C113.748 37.3366 113.562 37.7331 113.315 38.0703C113.074 38.4076 112.775 38.6696 112.42 38.8564C112.064 39.0433 111.657 39.1367 111.196 39.1367C110.727 39.1367 110.312 39.0592 109.952 38.9043C109.592 38.7493 109.287 38.5238 109.036 38.2275C108.785 37.9313 108.585 37.5758 108.435 37.1611C108.289 36.7464 108.188 36.2793 108.134 35.7598V34.9941C108.188 34.4473 108.291 33.9574 108.441 33.5244C108.592 33.0915 108.79 32.7223 109.036 32.417C109.287 32.1071 109.59 31.8724 109.945 31.7129C110.301 31.5488 110.711 31.4668 111.176 31.4668C111.641 31.4668 112.053 31.5579 112.413 31.7402C112.773 31.918 113.076 32.1732 113.322 32.5059C113.568 32.8385 113.753 33.2373 113.876 33.7021C114.004 34.1624 114.067 34.6751 114.067 35.2402ZM112.796 35.3838V35.2402C112.796 34.8711 112.757 34.5247 112.68 34.2012C112.602 33.873 112.481 33.5859 112.317 33.3398C112.158 33.0892 111.953 32.8932 111.702 32.752C111.451 32.6061 111.153 32.5332 110.807 32.5332C110.488 32.5332 110.21 32.5879 109.973 32.6973C109.74 32.8066 109.542 32.9548 109.378 33.1416C109.214 33.3239 109.079 33.5335 108.975 33.7705C108.874 34.0029 108.799 34.2445 108.749 34.4951V36.2656C108.84 36.5846 108.968 36.8854 109.132 37.168C109.296 37.446 109.515 37.6715 109.788 37.8447C110.062 38.0133 110.406 38.0977 110.82 38.0977C111.162 38.0977 111.456 38.027 111.702 37.8857C111.953 37.7399 112.158 37.5417 112.317 37.291C112.481 37.0404 112.602 36.7533 112.68 36.4297C112.757 36.1016 112.796 35.7529 112.796 35.3838ZM115.596 35.3838V35.2266C115.596 34.6934 115.673 34.1989 115.828 33.7432C115.983 33.2829 116.206 32.8841 116.498 32.5469C116.79 32.2051 117.143 31.9408 117.558 31.7539C117.972 31.5625 118.437 31.4668 118.952 31.4668C119.472 31.4668 119.939 31.5625 120.354 31.7539C120.773 31.9408 121.128 32.2051 121.42 32.5469C121.716 32.8841 121.942 33.2829 122.097 33.7432C122.252 34.1989 122.329 34.6934 122.329 35.2266V35.3838C122.329 35.917 122.252 36.4115 122.097 36.8672C121.942 37.3229 121.716 37.7217 121.42 38.0635C121.128 38.4007 120.775 38.665 120.36 38.8564C119.95 39.0433 119.485 39.1367 118.966 39.1367C118.446 39.1367 117.979 39.0433 117.564 38.8564C117.15 38.665 116.794 38.4007 116.498 38.0635C116.206 37.7217 115.983 37.3229 115.828 36.8672C115.673 36.4115 115.596 35.917 115.596 35.3838ZM116.86 35.2266V35.3838C116.86 35.7529 116.904 36.1016 116.99 36.4297C117.077 36.7533 117.207 37.0404 117.38 37.291C117.558 37.5417 117.779 37.7399 118.043 37.8857C118.307 38.027 118.615 38.0977 118.966 38.0977C119.312 38.0977 119.615 38.027 119.875 37.8857C120.139 37.7399 120.358 37.5417 120.531 37.291C120.704 37.0404 120.834 36.7533 120.921 36.4297C121.012 36.1016 121.058 35.7529 121.058 35.3838V35.2266C121.058 34.862 121.012 34.5179 120.921 34.1943C120.834 33.8662 120.702 33.5768 120.524 33.3262C120.351 33.071 120.132 32.8704 119.868 32.7246C119.608 32.5788 119.303 32.5059 118.952 32.5059C118.606 32.5059 118.3 32.5788 118.036 32.7246C117.776 32.8704 117.558 33.071 117.38 33.3262C117.207 33.5768 117.077 33.8662 116.99 34.1943C116.904 34.5179 116.86 34.862 116.86 35.2266ZM128.909 28.3838H129.948C129.948 28.8304 129.88 29.1859 129.743 29.4502C129.606 29.71 129.42 29.9105 129.183 30.0518C128.95 30.193 128.686 30.3001 128.39 30.373C128.098 30.446 127.795 30.5166 127.48 30.585C127.089 30.667 126.724 30.7969 126.387 30.9746C126.054 31.1478 125.767 31.3939 125.525 31.7129C125.288 32.0319 125.113 32.4466 124.999 32.957C124.89 33.4674 124.86 34.0986 124.91 34.8506V35.4795H123.871V34.8506C123.871 34.0075 123.951 33.2715 124.11 32.6426C124.274 32.0137 124.505 31.4827 124.801 31.0498C125.097 30.6169 125.448 30.2728 125.854 30.0176C126.264 29.7624 126.715 29.5869 127.207 29.4912C127.562 29.4229 127.868 29.3499 128.123 29.2725C128.378 29.1904 128.572 29.0811 128.704 28.9443C128.841 28.8076 128.909 28.6208 128.909 28.3838ZM127.412 32.0273C127.895 32.0273 128.326 32.1117 128.704 32.2803C129.082 32.4489 129.404 32.6836 129.668 32.9844C129.932 33.2852 130.133 33.6406 130.27 34.0508C130.411 34.4564 130.481 34.8984 130.481 35.377V35.5273C130.481 36.0423 130.406 36.5208 130.256 36.9629C130.11 37.4004 129.894 37.7832 129.606 38.1113C129.324 38.4349 128.978 38.6878 128.567 38.8701C128.162 39.0524 127.699 39.1436 127.18 39.1436C126.66 39.1436 126.195 39.0524 125.785 38.8701C125.38 38.6878 125.033 38.4349 124.746 38.1113C124.459 37.7832 124.24 37.4004 124.09 36.9629C123.944 36.5208 123.871 36.0423 123.871 35.5273V35.377C123.871 35.263 123.892 35.1514 123.933 35.042C123.974 34.9326 124.024 34.821 124.083 34.707C124.147 34.5931 124.204 34.4723 124.254 34.3447C124.423 33.9346 124.653 33.554 124.944 33.2031C125.241 32.8522 125.594 32.5697 126.004 32.3555C126.419 32.1367 126.888 32.0273 127.412 32.0273ZM127.166 33.0596C126.701 33.0596 126.318 33.1667 126.018 33.3809C125.721 33.5951 125.5 33.8799 125.354 34.2354C125.209 34.5863 125.136 34.9668 125.136 35.377V35.5273C125.136 35.8737 125.177 36.2018 125.259 36.5117C125.341 36.8216 125.464 37.0973 125.628 37.3389C125.797 37.5758 126.008 37.7627 126.264 37.8994C126.523 38.0361 126.829 38.1045 127.18 38.1045C127.531 38.1045 127.834 38.0361 128.089 37.8994C128.344 37.7627 128.554 37.5758 128.718 37.3389C128.882 37.0973 129.005 36.8216 129.087 36.5117C129.169 36.2018 129.21 35.8737 129.21 35.5273V35.377C129.21 35.0671 129.169 34.7731 129.087 34.4951C129.005 34.2171 128.88 33.971 128.711 33.7568C128.547 33.5426 128.335 33.374 128.075 33.251C127.82 33.1234 127.517 33.0596 127.166 33.0596ZM137.109 31.6035V32.6494H133.534V31.6035H137.109ZM138.224 31.6035V39H136.959V31.6035H138.224ZM133.227 31.6035H134.498L134.307 35.1719C134.275 35.7233 134.222 36.2109 134.149 36.6348C134.081 37.054 133.985 37.4141 133.862 37.7148C133.744 38.0156 133.593 38.2617 133.411 38.4531C133.233 38.64 133.019 38.779 132.769 38.8701C132.518 38.9567 132.229 39 131.9 39H131.504V37.8857L131.777 37.8652C131.973 37.8516 132.14 37.806 132.276 37.7285C132.418 37.651 132.536 37.5371 132.632 37.3867C132.728 37.2318 132.805 37.0335 132.864 36.792C132.928 36.5505 132.976 36.2633 133.008 35.9307C133.044 35.598 133.072 35.2106 133.09 34.7686L133.227 31.6035ZM144.722 34.7412V35.7734H140.791V34.7412H144.722ZM141.892 31.6035V39H140.627V31.6035H141.892ZM143.642 35.3838V35.2266C143.642 34.6934 143.719 34.1989 143.874 33.7432C144.029 33.2829 144.252 32.8841 144.544 32.5469C144.84 32.2051 145.193 31.9408 145.604 31.7539C146.018 31.5625 146.483 31.4668 146.998 31.4668C147.522 31.4668 147.992 31.5625 148.406 31.7539C148.821 31.9408 149.174 32.2051 149.466 32.5469C149.762 32.8841 149.988 33.2829 150.143 33.7432C150.298 34.1989 150.375 34.6934 150.375 35.2266V35.3838C150.375 35.917 150.298 36.4115 150.143 36.8672C149.988 37.3229 149.764 37.7217 149.473 38.0635C149.181 38.4007 148.828 38.665 148.413 38.8564C147.998 39.0433 147.531 39.1367 147.012 39.1367C146.492 39.1367 146.025 39.0433 145.61 38.8564C145.196 38.665 144.84 38.4007 144.544 38.0635C144.252 37.7217 144.029 37.3229 143.874 36.8672C143.719 36.4115 143.642 35.917 143.642 35.3838ZM144.913 35.2266V35.3838C144.913 35.7529 144.956 36.1016 145.043 36.4297C145.13 36.7533 145.259 37.0404 145.433 37.291C145.61 37.5417 145.829 37.7399 146.089 37.8857C146.353 38.027 146.661 38.0977 147.012 38.0977C147.363 38.0977 147.668 38.027 147.928 37.8857C148.192 37.7399 148.411 37.5417 148.584 37.291C148.757 37.0404 148.887 36.7533 148.974 36.4297C149.065 36.1016 149.11 35.7529 149.11 35.3838V35.2266C149.11 34.862 149.065 34.5179 148.974 34.1943C148.887 33.8662 148.755 33.5768 148.577 33.3262C148.404 33.071 148.185 32.8704 147.921 32.7246C147.657 32.5788 147.349 32.5059 146.998 32.5059C146.652 32.5059 146.349 32.5788 146.089 32.7246C145.829 32.8704 145.61 33.071 145.433 33.3262C145.259 33.5768 145.13 33.8662 145.043 34.1943C144.956 34.5179 144.913 34.862 144.913 35.2266ZM155.978 34.7891V35.8281H152.19V34.7891H155.978ZM155.226 38.0977C155.526 38.0977 155.804 38.0361 156.06 37.9131C156.315 37.79 156.524 37.6214 156.688 37.4072C156.853 37.1885 156.946 36.9401 156.969 36.6621H158.165C158.142 37.0996 157.994 37.5075 157.721 37.8857C157.452 38.2594 157.099 38.5625 156.661 38.7949C156.228 39.0228 155.75 39.1367 155.226 39.1367C154.67 39.1367 154.184 39.0387 153.77 38.8428C153.355 38.6468 153.011 38.3779 152.737 38.0361C152.468 37.6943 152.266 37.3024 152.129 36.8604C151.997 36.4137 151.931 35.9421 151.931 35.4453V35.1582C151.931 34.6615 151.997 34.1921 152.129 33.75C152.266 33.3034 152.471 32.9092 152.744 32.5674C153.018 32.2256 153.359 31.9567 153.77 31.7607C154.184 31.5648 154.667 31.4668 155.219 31.4668C155.798 31.4668 156.303 31.5853 156.736 31.8223C157.169 32.0547 157.509 32.3737 157.755 32.7793C158.006 33.1803 158.142 33.6361 158.165 34.1465H156.969C156.946 33.8411 156.859 33.5654 156.709 33.3193C156.563 33.0732 156.363 32.8773 156.107 32.7314C155.857 32.5811 155.561 32.5059 155.219 32.5059C154.831 32.5059 154.506 32.5833 154.241 32.7383C153.981 32.8887 153.774 33.0938 153.619 33.3535C153.469 33.6087 153.359 33.8936 153.291 34.208C153.227 34.5179 153.195 34.8346 153.195 35.1582V35.4453C153.195 35.7689 153.227 36.0879 153.291 36.4023C153.359 36.7168 153.469 37.0016 153.619 37.2568C153.774 37.512 153.981 37.7171 154.241 37.8721C154.506 38.0225 154.834 38.0977 155.226 38.0977ZM162.988 31.6035V39H161.717V31.6035H162.988ZM165.47 31.6035V32.6289H159.283V31.6035H165.47ZM168.003 34.1465H170.225C170.822 34.1465 171.325 34.2513 171.735 34.4609C172.146 34.666 172.455 34.9508 172.665 35.3154C172.879 35.6755 172.986 36.0856 172.986 36.5459C172.986 36.8877 172.927 37.209 172.809 37.5098C172.69 37.806 172.512 38.0658 172.275 38.2891C172.043 38.5124 171.754 38.6878 171.407 38.8154C171.065 38.9385 170.671 39 170.225 39H167.08V31.6035H168.345V37.9609H170.225C170.589 37.9609 170.881 37.8949 171.1 37.7627C171.318 37.6305 171.476 37.4596 171.571 37.25C171.667 37.0404 171.715 36.8216 171.715 36.5938C171.715 36.3704 171.667 36.1517 171.571 35.9375C171.476 35.7233 171.318 35.5456 171.1 35.4043C170.881 35.2585 170.589 35.1855 170.225 35.1855H168.003V34.1465ZM177.775 38.0977C178.076 38.0977 178.354 38.0361 178.609 37.9131C178.865 37.79 179.074 37.6214 179.238 37.4072C179.402 37.1885 179.496 36.9401 179.519 36.6621H180.722C180.699 37.0996 180.551 37.5075 180.277 37.8857C180.008 38.2594 179.655 38.5625 179.218 38.7949C178.78 39.0228 178.299 39.1367 177.775 39.1367C177.219 39.1367 176.734 39.0387 176.319 38.8428C175.909 38.6468 175.567 38.3779 175.294 38.0361C175.025 37.6943 174.822 37.3024 174.686 36.8604C174.553 36.4137 174.487 35.9421 174.487 35.4453V35.1582C174.487 34.6615 174.553 34.1921 174.686 33.75C174.822 33.3034 175.025 32.9092 175.294 32.5674C175.567 32.2256 175.909 31.9567 176.319 31.7607C176.734 31.5648 177.219 31.4668 177.775 31.4668C178.354 31.4668 178.86 31.5853 179.293 31.8223C179.726 32.0547 180.065 32.3737 180.312 32.7793C180.562 33.1803 180.699 33.6361 180.722 34.1465H179.519C179.496 33.8411 179.409 33.5654 179.259 33.3193C179.113 33.0732 178.912 32.8773 178.657 32.7314C178.407 32.5811 178.113 32.5059 177.775 32.5059C177.388 32.5059 177.062 32.5833 176.798 32.7383C176.538 32.8887 176.331 33.0938 176.176 33.3535C176.025 33.6087 175.916 33.8936 175.848 34.208C175.784 34.5179 175.752 34.8346 175.752 35.1582V35.4453C175.752 35.7689 175.784 36.0879 175.848 36.4023C175.911 36.7168 176.019 37.0016 176.169 37.2568C176.324 37.512 176.531 37.7171 176.791 37.8721C177.055 38.0225 177.383 38.0977 177.775 38.0977ZM183.891 35.4727H185.258L183.118 39H181.751L183.891 35.4727ZM184.95 31.6035H188.04V39H186.775V32.6289H184.95C184.59 32.6289 184.296 32.6904 184.068 32.8135C183.84 32.932 183.674 33.0869 183.569 33.2783C183.465 33.4697 183.412 33.668 183.412 33.873C183.412 34.0736 183.46 34.2673 183.556 34.4541C183.651 34.6364 183.802 34.7868 184.007 34.9053C184.212 35.0238 184.476 35.083 184.8 35.083H187.117V36.1221H184.8C184.376 36.1221 184 36.0651 183.672 35.9512C183.344 35.8372 183.066 35.68 182.838 35.4795C182.61 35.2744 182.437 35.0352 182.318 34.7617C182.2 34.4837 182.141 34.1829 182.141 33.8594C182.141 33.5358 182.202 33.2373 182.325 32.9639C182.453 32.6904 182.635 32.4512 182.872 32.2461C183.114 32.041 183.408 31.8838 183.754 31.7744C184.105 31.6605 184.504 31.6035 184.95 31.6035Z" fill="#313033"/>
</svg>
